<svg id="Layer_1" data-name="Layer 1" xmlns="http://www.w3.org/2000/svg" viewBox="0 0 384.71 464.06"><defs><style>.cls-1{fill:#333;}.cls-2{fill:#7c7c7c;}.cls-3{fill:#c0795c;}.cls-4{fill:#ff090f;}.cls-5{fill:#464646;}</style></defs><title>background</title><rect class="cls-1" x="2.3" width="381.11" height="463.4"/><path class="cls-2" d="M56.67,420.67l52-47.33,146,38,32,65.33H56.1S59,418.33,56.67,420.67Z" transform="translate(-53.81 -12.61)"/><polygon class="cls-3" points="87.19 264.39 79.19 294.39 200.19 320.39 190.19 346.39 166.19 346.39 177.87 361.93 162.19 395.39 126.19 391.39 30.19 342.39 15.37 319.92 11.25 312.46 38.19 245.39 87.19 264.39"/><polygon class="cls-3" points="341.95 260.59 360.08 282.27 380.19 314.39 306.56 387.43 278.19 417.39 217.19 415.39 208.19 371.39 259.19 355.39 341.95 260.59"/><path class="cls-3" d="M221.57,144.12l-2.1,9.38L207,164l.5,8.5s40.5,22,56.5,7,2-20,2-20Z" transform="translate(-53.81 -12.61)"/><path class="cls-3" d="M200.23,97.74C198.5,100,199,106,208,122.5c0,0,4,3.5,7,.5s26.8-5.46,26.8-5.46L263,56l-28-9.5-27,7-9.08,44.1Z" transform="translate(-53.81 -12.61)"/><path class="cls-3" d="M258.5,50a123.06,123.06,0,0,1-4,21,246.35,246.35,0,0,1-9,23.5l-7.12,3.84L233,116.5s-16.5,5-24-2.5c0,0,1.22,20,9.86,26.51s28.64,13,38.14,5,18-7.5,22-53S280.5,62,280.5,62Z" transform="translate(-53.81 -12.61)"/><path d="M438.52,379.28v-.06c-1.2-3.44-.81-3.58-4.46-3.39,0,0,0,0,0,0,.9-1.63.51-2.92-.78-2.9-1.86,0-3.75-.36-5.57.5-.84.4-1.52.8-1.39,1.8s-.83,1.53-.51,2.45a2.08,2.08,0,0,1-.53-.45c-.59-.54-1.27-1.24-2-.61-1.14.95-2.22.8-3.51.44-2.1-.59-3-.1-3.74,1.86a4,4,0,0,1-2.58,2.3c-2.3.9-4.53-.37-6.79,0-1.2-1.14-3-1.07-4.25-1.89-1.9-1.23-1.78-1.41-3,.55a2.94,2.94,0,0,1-3.46,1.47c-3.31-.82-3.71-.58-4.63,2.76-.08.3-.18.76-.5.7-.58-.09-.19-.56-.19-.88,0-1.33,1.22-2,1.65-3.12a10.55,10.55,0,0,1,4.26-5.44,11.69,11.69,0,0,0,2.28-2.12,18.81,18.81,0,0,1,5.6-4.18,6.69,6.69,0,0,0,3.41-2.63,3.67,3.67,0,0,1,1.25-1.17,2.31,2.31,0,0,0,.8-1.11c.82-1.8,1.64-3.64,3.93-4a1.25,1.25,0,0,0,.73-.57,4.32,4.32,0,0,1,1.81-1.21,5.93,5.93,0,0,0,3.19-3c.85-1.81,1.85-3.67,4.1-4.26,1.19-.31,2.54,0,3.55-1,.21-.21.62-.07.88.12a2.51,2.51,0,0,0,2.93.09,3.11,3.11,0,0,1,1.53-.21,2.8,2.8,0,0,0,2.36-3.49,1.32,1.32,0,0,0-1.63-.88c-.36.09-.66.33-1,.42a2,2,0,0,1-2.34-1.55c-.27-1.07.51-1.37,1.27-1.63a8.26,8.26,0,0,1,4.5,0,2.11,2.11,0,0,0,2.37-.67V275.3c-.65-1.51-1.71-1.83-3.32-1.54a9.87,9.87,0,0,1-3.88.32c-3.44-.77-5.52,1.15-7.34,3.59-.33.44-.62.86-1.08.5a10.65,10.65,0,0,0-3.73-1.47c-1.77-.54-1.2-1.7,1.19-3.58l.06,0c1.56-.53,2.26-1.22,2-2.73a9.83,9.83,0,0,0-1.48-4c-2.26-3.4-1.28-7.14-.79-10.79a.94.94,0,0,1,1-.87c.63,0,.87.54,1,1a31.54,31.54,0,0,0,1.53,4.61c.4.82.85,1.45,1.89,1.25.65-.12.77.09.69.76-.2,1.83.28,2.28,2.09,2.49,2.27.27,4.58.25,6.7,1.38a2.56,2.56,0,0,0,3.46-.62V155.79c-1.18.43-2.37.82-3.52,1.32a1.61,1.61,0,0,0-.78.91,24.33,24.33,0,0,0-1.14,4.22,4.72,4.72,0,0,1-1,2.37c0,.07,0,.14,0,.21a.1.1,0,0,1-.11.12h-.17a7.61,7.61,0,0,1-.75.73,2.81,2.81,0,0,1-2.25.35,31.55,31.55,0,0,0-3.75-.17,4.68,4.68,0,0,0-4,2.54.92.92,0,0,1-1.08.56c-3.62-.31-6.57-2.25-9.65-3.87a8.89,8.89,0,0,1-1.32-1.1,4.44,4.44,0,0,0-4.29-1.2,8.28,8.28,0,0,0-2.91,1.29c-2.68,1.95-4,2-7.13-.1-1.59-1-2.46-1-3.69.52a15.59,15.59,0,0,1-1.58,1.94,5.34,5.34,0,0,1-4.37,1.3,9.17,9.17,0,0,0-7.17,2.06,4.69,4.69,0,0,1-3.79,1.14,2.45,2.45,0,0,0-2.17.7A5.21,5.21,0,0,1,366.9,173a3.86,3.86,0,0,0-3.6,1.45c-2.11,2.48-4.53,2.46-8,1a8.31,8.31,0,0,1-1.23-.69,3.78,3.78,0,0,0-3.73-.39,2,2,0,0,1-.76.17,8,8,0,0,0-4.78,1.77,21.74,21.74,0,0,1-5.38,2.49,7.11,7.11,0,0,0-1.72.76,3.67,3.67,0,0,1-3.29.59,24.18,24.18,0,0,1-4.72-1.64,49.85,49.85,0,0,0-10.17-3.64,16.33,16.33,0,0,1-2-.59,27.55,27.55,0,0,0-6.2-1.6,23.94,23.94,0,0,1-3-.65c-.33.11-.66.22-1,.37a.73.73,0,0,1-.86-.21c-.33-.41-.67-.79-1-1.16a27.45,27.45,0,0,1-3.41-1.72,17.2,17.2,0,0,0-5.67-2.16,15.75,15.75,0,0,1-7.6-3.86,20.42,20.42,0,0,0-4.24-2.91,7.45,7.45,0,0,1-3.7-3.65c-.21-.47-.71-1.07-1.15-1.15-1.89-.34-2.51-1.77-2.66-3.28-.3-3-.41-6.05-.45-9.08a44.24,44.24,0,0,1,.37-6.42,13,13,0,0,1,1.26-4.16,23.61,23.61,0,0,0,2.47-9.65c.08-1.41,0-2.83.07-4.24.06-2.33.63-2.95,3-3.12a3.78,3.78,0,0,0,2.52-1.12c.35-.36.5-.59-.14-.9-1.07-.52-1.08-.73-.15-1.47a3.11,3.11,0,0,0,1.39-3.1c-.11-.74.18-1.21,1.06-1.11s1.42-.53,1.65-1.35c.3-1.05.61-2.11.82-3.18.68-3.33,1.27-6.68,2-10s-.09-6.35-.51-9.5A1.64,1.64,0,0,0,292,83c-1.17-1.27-1.07-2.78-.83-4.3.15-.93.38-1.85.59-2.76a12.11,12.11,0,0,0,.1-5.14,3.6,3.6,0,0,1,.68-3.39.87.87,0,0,0,.25-.4c.48-3.09,1.77-6.26-1.07-9a5.66,5.66,0,0,1-1.63-3.67,7.56,7.56,0,0,0-1.63-4A15.81,15.81,0,0,1,287.24,48c-.72-1.39-1.38-2.81-2.17-4.16-1.54-2.61-3.09-5.22-4.75-7.75a15.63,15.63,0,0,0-4.89-4.8,1.44,1.44,0,0,1-.39-.26c-2-2.5-5.06-3.18-7.68-4.62a2.22,2.22,0,0,1-1.18-1.7c-.37-1.84-1.09-2.47-3-2.54a15,15,0,0,0-3,.17,3.68,3.68,0,0,1-3.44-1c-1.47-1.45-2.6-1.17-3.37.75-.09.24-.19.55-.38.66a2.15,2.15,0,0,1-.84.09,1.81,1.81,0,0,1,0-.71c.62-1.61.54-1.77-1.12-2.15a2.71,2.71,0,0,0-2.52.33c-1.06.82-1.6.72-2.65-.12-1.85-1.49-2.25-1.36-2.87.94-.07.25-.14.51-.18.76-.1.55-.3.84-1,.68a6.47,6.47,0,0,1-1.92-.84,1.52,1.52,0,0,0-.56-.24l-3.27-1a4.1,4.1,0,0,0-1.2-.29c-1,0-1.26.64-.74,1.53a2.15,2.15,0,0,1,.43,1.13A2.64,2.64,0,0,1,234,24.4a1.12,1.12,0,0,1-1.57-.18,3.53,3.53,0,0,0-2.32-.77c-1.67-.12-3.33-.29-5-.53a9,9,0,0,0-5.72,1.3,37.29,37.29,0,0,1-7.93,3.71,2.76,2.76,0,0,0-1.09.6,8.67,8.67,0,0,1-3.94,2.06c-.85.21-1.63,1.29-2.13,2.15-.67,1.18-1.79,2.23-1.43,3.87.06.29-.53.89-.94,1.09a3.18,3.18,0,0,0-1.81,1.82,2.07,2.07,0,0,1-.93,1,1.27,1.27,0,0,0-.71,1.56c.38,1.92-.41,3.42-1.56,4.89s-2.13,3.09-3.16,4.66a3.08,3.08,0,0,0-.44,1.17,84.88,84.88,0,0,0-1.5,10.55c-.08,2.61-.25,5.22-.34,7.83a4.1,4.1,0,0,0,.88,2.94,2.43,2.43,0,0,1,.39,1.15,3.5,3.5,0,0,1,0,1.25c-.74,3.56.25,6.91,1.13,10.29a13.15,13.15,0,0,1,.24,1.55,2.38,2.38,0,0,0,1,1.76,8.69,8.69,0,0,1,1.93,3c.51,1,.83,2.15,1.24,3.22a8.43,8.43,0,0,0,.58,1.28c.52.87.6.87,1.31.14s1.68-.74,2.15.42a9.33,9.33,0,0,1,.47,2,5.14,5.14,0,0,0,1.83,3.2,5.75,5.75,0,0,0,1.18.6,7.76,7.76,0,0,0,.3-1.27c.06-.93,0-1.88.11-2.8a1.45,1.45,0,0,1,2.45-1c1.37,1,2.91,1.9,3.43,3.72a1,1,0,0,0,.24.4c.28.28.59.53.89.8-.08-.38-.15-.76-.24-1.13s-.21-.59-.28-.9c-.15-.65,0-1.21.75-1.27a1.77,1.77,0,0,0,1.61-1.26,1.39,1.39,0,0,1,.89-.74c1.66-.25,3.27-.26,4.27,1.47a2,2,0,0,0,1.7.95,11.73,11.73,0,0,1,3.87,1.07,5.43,5.43,0,0,0,5.63-.81c.41-.32.79-.69,1.2-1a1.8,1.8,0,0,1,2.17-.34,2.44,2.44,0,0,1,1.09,2.42c-.07.41-.28.79-.36,1.2a2.12,2.12,0,0,0,.11.7,5.34,5.34,0,0,0,.83-.24c.12-.05.2-.24.26-.38a15.84,15.84,0,0,0,1.61-5.21,4.81,4.81,0,0,0-.8-3.42,1.82,1.82,0,0,1-.11-2.57c.36-.39.29-.71-.14-1s-.89-.89-1.4-1.24a4.24,4.24,0,0,0-1.64-.81c-1.69-.26-3.4-.35-5.1-.56-1.4-.17-2.79-.42-4.19-.63a11.46,11.46,0,0,0-6.43.91c-1.29.56-2.59,1.12-3.91,1.61s-2.18,1.22-2,2.77a12.94,12.94,0,0,1,0,1.46c.58-.21,1.16-.42,1.73-.65a.65.65,0,0,0,.34-.31c.23-.59.42-1.16,1.14-1.37,1.65-.48,3.22-1.32,5-1.08.35,0,.93.4.93.62,0,.45-.18,1.14-.51,1.31-1.1.58-2.3,1-3.46,1.44-.58.23-1.18.44-1.73.73a1.86,1.86,0,0,0-1.2,1.84c0,.79-.45,1-1.12.56a11.27,11.27,0,0,1-1-.81,3.42,3.42,0,0,0-2.44-.85,4.3,4.3,0,0,1-4.66-4.07c-.24-2.57.06-5,1.87-7.07a5.58,5.58,0,0,0,1-5c-.4-2.17-1.6-3.94-2.46-5.88a5.38,5.38,0,0,1-.54-3.49,41.44,41.44,0,0,1,1.22-5,5.65,5.65,0,0,1,3.42-3.43,17.77,17.77,0,0,0,5.51-3.81,10.1,10.1,0,0,1,1.39-1.11l.31-.33a.3.3,0,0,1,.15-.08l.4-.07c.7-.34,1.43-.64,2.16-.92a17.84,17.84,0,0,1,3-1,30.6,30.6,0,0,0,5.66-1.51,4.56,4.56,0,0,1,2.31.18c1.23.24,2.43.6,3.66.84a4.8,4.8,0,0,0,1.71,0,32.85,32.85,0,0,0,6-1.27,10.42,10.42,0,0,1,5.19-.49,1.62,1.62,0,0,0,.78,0c2-.86,3.76.29,5.6.68a2.33,2.33,0,0,1,1.08.59,10.91,10.91,0,0,0,4.7,2.33,13.05,13.05,0,0,1,3.49,2,9.67,9.67,0,0,0,3.86,1.89,11.1,11.1,0,0,1,3.52,1.6,2.38,2.38,0,0,1,.88,2.39,3.21,3.21,0,0,1-.23.91,19.09,19.09,0,0,0-1.14,7.18,4,4,0,0,1-.33,1.51,5,5,0,0,0-.16,3.22,19.44,19.44,0,0,1,.23,2.93c.06.93.11,1.87.2,2.8.13,1.4-.2,2.05-1.59,2.16a11.88,11.88,0,0,1-4.18-.25,8.54,8.54,0,0,0-4.16-.09c-1.23.24-2.48.42-3.7.68s-2.32.58-3.48.85a5.44,5.44,0,0,1-1.23.19,5.6,5.6,0,0,0-2.8.84,7.17,7.17,0,0,1-2.52.74c-2.07.28-2.63.89-2.51,3,0,.77.29,1.68,0,2.27s-1.24.65-1.88,1a2.83,2.83,0,0,0-.47.37c.15.12.29.32.45.34,2.41.24,3.11,1.95,3.51,4a18.84,18.84,0,0,0,.92,3.63,35.47,35.47,0,0,0,2.4,4.56,3.78,3.78,0,0,0,2.87,2,1.25,1.25,0,0,1,.59.18,1.63,1.63,0,0,1,.32.49c-.16.09-.35.3-.47.26-1.2-.42-2.22.4-3.36.48-.34,0-.69.43-1,.73-.6.66-1.16,1.35-1.71,2a4.91,4.91,0,0,1-3.29,1.64c-.55.09-1.25-.4-1.81-.76a4.84,4.84,0,0,0-5.05-.4c-.62.31-1.35.71-1.19,1.47a2.6,2.6,0,0,0,1.14,1.35,3.26,3.26,0,0,0,2.56.44,4.25,4.25,0,0,1,3.29.67,2.71,2.71,0,0,1,1.51,2.53c0,1.14.32,1.35,1.45,1.13a67.77,67.77,0,0,0,6.73-1.39,9.66,9.66,0,0,0,3.38-2.16,20.49,20.49,0,0,0,2.6-3.13c1-1.36.93-2.27-.21-3.48-.61-.65-1.27-1.25-1.88-1.9-1.15-1.24-1.21-1.82-.26-3.3a1,1,0,0,0-.08-1.39c-.57-.54-1.16-1.05-1.74-1.57-.76-.68-.83-1.34,0-2a4.64,4.64,0,0,1,1.84-.74,8.05,8.05,0,0,1,1.88-.07c2.95.08,5.22-1.62,7.66-2.88,1.62-.84,3.2-1.75,4.85-2.51,1-.46,1.58-.08,1.83,1,.09.41.16.82.22,1.24.34,2.09-.16,2.86-2.15,3.52-1.14.38-2.24.86-3.35,1.31-.11,0-.16.22-.24.33a1.72,1.72,0,0,0,.43.14c1.33.07,2.67.07,4,.21a1.5,1.5,0,0,1,1,.76,3.35,3.35,0,0,0,1.85,1.8c1.63.77,2,1.6,1.36,3.29A10.68,10.68,0,0,1,271.6,113c-1,.88-1.14,2.21-1.26,3.45-.16,1.56-.06,3.15-.36,4.68a18.18,18.18,0,0,1-1.38,3.46,7.58,7.58,0,0,0-.67,1.4c-.6,3.17-2.47,5.75-4,8.45-.77,1.36-2.18,2.36-3.29,3.52s-2.07,2.22-3.15,3.28a6.64,6.64,0,0,1-3.41,1.75c-1.68.34-3.33.85-5,1.28a2.93,2.93,0,0,1-1.21.25c-1.42-.32-2.62.26-3.92.67a14.89,14.89,0,0,1-10.7-.2c-2.73-1.17-5.58-2-8.21-3.46a13.14,13.14,0,0,0-5.8-1.15,1.69,1.69,0,0,0-.4.08,1.25,1.25,0,0,0,.12.28,37.54,37.54,0,0,0,2.59,3.33c2.38,2.48,4.81,4.91,7.31,7.26a7.05,7.05,0,0,0,4.27,1.73c1,.11,2,.29,3,.49l.51-.06a1.69,1.69,0,0,1,1.23.28c.13.09.27.15.4.23l.37.08c2.45.52,4.88,1.1,7.32,1.66A8.55,8.55,0,0,1,250,157.6c.6.53.69,1.06.14,1.61a6.1,6.1,0,0,0-1.42,2.57,5,5,0,0,1-1,1.39,10,10,0,0,0-.85.91c-.42.69,0,1.37.74,1.21a7,7,0,0,0,3.84-1.59,4.21,4.21,0,0,1,1.16-.86c.11-.17.22-.33.32-.52a.07.07,0,0,1,.12,0c.11.11.23.2.34.31a3,3,0,0,1,2,.64,4.29,4.29,0,0,0,4.58.23c1.74-.77,2.82-.28,3.25,1.61a35.94,35.94,0,0,1,.59,4.65,2.26,2.26,0,0,1-1.6,2.41A56.25,56.25,0,0,1,249.62,176a66.16,66.16,0,0,1-13.74,1.13,47.07,47.07,0,0,1-12.37-1.9,26.19,26.19,0,0,1-10-5.48,2.88,2.88,0,0,1-1-1.35c-.37-2-.63-4-.85-6a2.86,2.86,0,0,1,1.07-2.51c1.22-1.06,2.47-2.1,3.7-3.16.91-.78,1.83-1.55,2.7-2.37.19-.17.2-.53.3-.8a2,2,0,0,0-.73-.09c-3.94,1.05-7.85,2.21-11.8,3.17a57.17,57.17,0,0,1-7.26,1.24c-8.8,1-17.53,2.34-26.22,4q-6.86,1.32-13.75,2.49a16.88,16.88,0,0,1-3.75.2,22.05,22.05,0,0,0-7.45.88,8.92,8.92,0,0,1-.92.22c-.41.07-.67,0-.68-.54,0-1.57-.16-1.73-1.64-2.14a36.77,36.77,0,0,0-4.09-1.07,4.34,4.34,0,0,1-3.12-2.14,18.91,18.91,0,0,1-3.06-7.16,4.59,4.59,0,0,0-1.78-3,3.21,3.21,0,0,1-1-1.66,3,3,0,0,0-1.67-2.14,8.92,8.92,0,0,1-3.83-3.61,50.37,50.37,0,0,1-2.83-5.22,9.34,9.34,0,0,0-2.62-3.46,14.3,14.3,0,0,1-4.54-5.89,15.92,15.92,0,0,0-1-1.93c-1.15-2.1-2.21-4.26-3.49-6.28a47.51,47.51,0,0,0-4.55-6.37,45.09,45.09,0,0,1-3.89-5.67c-.74-1.13-1.61-2.17-2.4-3.27a7.91,7.91,0,0,1-1.17-1.83c-.73-2.08-2.35-3.56-3.51-5.35a35.12,35.12,0,0,0-2.84-3.71c-1.08-1.26-2.29-2.41-3.42-3.63q-1.91-2.07-3.77-4.17a40.25,40.25,0,0,0-7-6.49A11.53,11.53,0,0,1,78,77.2c-1.54-1.63-3-3.35-4.64-4.89a14.91,14.91,0,0,0-3-1.92,7.6,7.6,0,0,1-2.78-2.7c-.74-1.18-1.3-2.53-2.81-3a1.35,1.35,0,0,1-.64-.67c-1-2.05-3-3.15-4.65-4.6-1.21-1.07-2.58-2-3.88-2.93v-.69a.88.88,0,0,0-.57.27V193.95c1.82,1.25,1.9,1.64.57,3.38-.32.42-.27.94-.57,1.33v39.89a3.61,3.61,0,0,0,3.87.78c.5-.15,1-.47,1.5-.23,1.63.75,3.46.78,5.1,1.5a1.7,1.7,0,0,0,2.16-.32.88.88,0,0,1,1.27-.11,5.06,5.06,0,0,0,2.09.61c1.42.26,2-.16,2.36-1.59a3,3,0,0,1,.1-.62c.12-.24.08-.94.47-.56s-.23.94-.47,1.4c-.81,1.52-.72,2,.63,3a3.27,3.27,0,0,0,2,.82,1.86,1.86,0,0,1,1.9,1.34c.4,1.87,1.72,3.07,2.95,4.32a4,4,0,0,1,1.22,4,4.29,4.29,0,0,0,.34,2.72c1,2.43,2.22,4.85.59,7.6a.05.05,0,0,0,0,0c.59,1.74.15,2.87-1.33,3.35-3.3,1.08-5.84,3.33-8.45,5.47a2.84,2.84,0,0,0,.68-2.24c-.45-2.14.43-3.88,1.31-5.67s2.25-3.15,1.9-5.3c-.12-.7-.07-1.39-.93-1.57a1.45,1.45,0,0,0-1.83.78c-.54,1.16-1.65,1.88-2.31,3a.73.73,0,0,1-.79.41c-.44-.11-.47-.52-.49-.88a3.87,3.87,0,0,1,1-3c.43-.46,1.1-.91.7-1.68a2.18,2.18,0,0,0-2.21-1.17,4.6,4.6,0,0,0-3.13,1.89A5.07,5.07,0,0,1,64,258.44a2,2,0,0,0-1.7,1.18A6.87,6.87,0,0,1,59.44,262a1.57,1.57,0,0,1-1.89-.18c-2-1.5-1.59-1-3.65,2.58v.12c2.58,3,2.79,3.35.63,6.38v0c.63,1.55,1.49,1.81,2.6,1.38a8.55,8.55,0,0,0,2.56-1.77c.13-.11.18-.44.43-.27.08.05,0,.3,0,.45-.73,2,.42,3.66,1,5.4a1.69,1.69,0,0,0,1.75,1.11s.3-.06.17,0c-.95.72-2,1.56-3.16,1.52A9.5,9.5,0,0,0,55,280.32v3.14c.26.19.41.65.87.33l.11-.05a4.86,4.86,0,0,0-.65.65,2.73,2.73,0,0,1-.33.33v6A1.78,1.78,0,0,0,57.4,292a1.31,1.31,0,0,1,1.52.52,1.41,1.41,0,0,1-.16,1.6,3.87,3.87,0,0,1-2,2.05A3.27,3.27,0,0,0,55,297.6v10.68c.36.4.72.76,1.26.24a1.47,1.47,0,0,1,.67-.37c.38-.09.81,0,.93.33.18.55-.39.59-.67.56-1.72-.18-1.82,1.93-3.35,2l0,.07c1.41,3.13,2.53,2.2,3.64,1.64a4.62,4.62,0,0,1,2.79-.86c.42.07.9.16,1,.61s-.35.88-.79,1a18.54,18.54,0,0,1-3.6,1.07A2.28,2.28,0,0,0,55,315.81V441.45a.78.78,0,0,0,.85.23,64.33,64.33,0,0,0,8.92-8.32A12.17,12.17,0,0,0,67,429.95a4,4,0,0,1,3-2.27,43.88,43.88,0,0,0,4.93-1.49,3.42,3.42,0,0,0,1.68-1.51,13.24,13.24,0,0,1,3.7-4.4,4,4,0,0,0,1.07-1.65c.58-1.45,1.07-2.93,1.58-4.41.44-1.28.83-2.58,1.27-3.87a24.46,24.46,0,0,1,3.4-7c1.28-1.7,3.14-2.38,5-3a1.5,1.5,0,0,1,1.25.38c1.2,1.19,2.84,2,3.4,3.76,1.84,1.61,3.65,3.26,5.53,4.82.48.4,1,.53,1.06,1.35a1.66,1.66,0,0,0,.92,1.11c1.89.84,3.82,1.56,5.73,2.35a2.34,2.34,0,0,1,1,.68c.93,1.37,2.41,1.75,3.83,2.26,1.23.44,2.49.81,3.11,2.18a1,1,0,0,0,.89.31c.23-.1.4-.56.41-.87a2.21,2.21,0,0,0-.32-1c-.89-1.69-.76-3.36.63-4.51a6.63,6.63,0,0,1,4.09-1.73c.76,0,1,.24,1.12.94a14.86,14.86,0,0,1,.29,3.65,16.62,16.62,0,0,0,1.33,6.73c.8,2.15,1.82,4.22,2.76,6.32.09.2.32.35.48.52a1.78,1.78,0,0,0,.33-.51c.51-2.28,1.3-4.5-.35-6.76a22.41,22.41,0,0,1-2-4.21,2.68,2.68,0,0,1-.26-1.05,13.15,13.15,0,0,1,.18-1.6,6.2,6.2,0,0,1,1.74.51,2.49,2.49,0,0,1,.82,1.27c.23.69.3,1.43.49,2.14.05.2.31.34.48.5.11-.16.28-.32.31-.49.3-1.79.57-3.59.87-5.39a1.48,1.48,0,0,1,.33-.85c1.43-1.16,1.57-2.9,2-4.48s1.07-2.08,2.69-2.08c1.05,0,1.43.25,1.6,1.32a10.29,10.29,0,0,1,.08,5c-.15.48-.08.87.42,1,1,.26,1.15,1.07,1.39,1.89a22.62,22.62,0,0,0,1.24,3.34,4.15,4.15,0,0,1,.33,3.62c-.84,1.91-1.78,3.77-2.68,5.66a1.09,1.09,0,0,1-.14.28l-1.47,1.57a10.18,10.18,0,0,1,.6-2,11.48,11.48,0,0,0,1.32-5.9c0-.17-.12-.47-.22-.48a.64.64,0,0,0-.54.21,19,19,0,0,0-1.11,1.89,1,1,0,0,1-1.34.63c-1.41-.38-1.77,0-1.56,1.51a2.29,2.29,0,0,1-.05,1.21c-.91,1.95-1,4.05-1.27,6.12a2.81,2.81,0,0,1-.24,1.21,20.94,20.94,0,0,0-2.33,4.42c-.07.15-.3.23-.46.34a3.41,3.41,0,0,1-.17-.55,4,4,0,0,1,.2-2.75,1.13,1.13,0,0,0-.35-1c-.54-.38-.68.24-.87.57q-1.05,1.83-2.06,3.69c-.55,1-.35,1.47.74,1.81,0,0,.11,0,.15,0,.87.31,1.68,1.52,1.44,2.16s-1,.75-2.19.31c-.78-.28-1.57-.67-2.4-.14s-.86,1.19.06,1.56a1.18,1.18,0,0,1,.74,1.75c-.41.91.26,2-.52,2.81a.45.45,0,0,0,.08.43c1,.71.47,1.7.44,2.57,0,.24-.27.48-.42.72-.19-.15-.38-.29-.56-.45s-.26-.26-.39-.39a2.64,2.64,0,0,0-.21.56.94.94,0,0,0,.05.61c.41.56.17.86-.3,1.22a1.49,1.49,0,0,0-.37.83c-.33,1.48-.63,3-.93,4.44a1.9,1.9,0,0,0,0,.78.83.83,0,0,0,.36.43s.31-.14.34-.26c.18-.59.31-1.2.47-1.8a9.76,9.76,0,0,1,.58-1.93,1.28,1.28,0,0,1,1-.46c.18,0,.42.53.49.84s-.27,1.22.49,1.25.77-.7.75-1.3a1.33,1.33,0,0,1,0-.47c.53-1.51,1-3,1.61-4.53.34-.9.8-1.17,1.51-1a1.31,1.31,0,0,1,.95,1.59,1.64,1.64,0,0,1-.06.31c-.13.45-.39,1,.23,1.2a1.93,1.93,0,0,0,1.42-.2c1.17-.76,1.32-1.3.8-2.63a1.75,1.75,0,0,1,.55-2.36c.63-.41.61-.81.51-1.44a4.7,4.7,0,0,1,.76-4,17,17,0,0,1,2.33-2.25,5.89,5.89,0,0,0,.81-.78l0-.05,0,0a5.83,5.83,0,0,0,1.34-3.37c0-.15,0-.31,0-.47.06-.56.38-1,.91-.76a1.13,1.13,0,0,1,.39,1,16.41,16.41,0,0,1-.76,1.88c-.62,1.66-1.21,3.33-1.81,5-.3.85-.17,1.08.69,1s1.85,0,2.21-1.29c.26-.92.58-.89,1.49-.31a2,2,0,0,0,.64.15c0-.2,0-.44-.12-.58a3.4,3.4,0,0,1-.33-3.93c.22-.43-.07-1.18-.25-1.75-.12-.38-.5-.66-.71-1s-.2-1,.32-1.19c1-.28,1.13-1.1,1.35-1.89a2.34,2.34,0,0,1,2.57-1.68c.27.05.69.28.73.48.19,1,1,1.3,1.68,1.72a2.84,2.84,0,0,1,1.52,2.25,15.75,15.75,0,0,0,.41,1.66,5,5,0,0,1,.37,2c-.37,1.59.69,2.21,1.66,3a5.2,5.2,0,0,1,1.07,1.25c.56.88,1.08,1.78,1.59,2.7a103.48,103.48,0,0,0,8.76,13.36c1.12,1.44,2.14,3,3.31,4.36,1,1.24,2.23,2.32,3.28,3.54,1.87,2.16,4,4.12,5.3,6.73a4.12,4.12,0,0,1,.3,1.07h16a.56.56,0,0,0,0-.8,37,37,0,0,0-3.25-3.53,22.6,22.6,0,0,1,2,2,7.32,7.32,0,0,0,2.52,2.29h1.89l.09-.09a3,3,0,0,0-.57-.74c-2.25-2-4.51-3.91-6.85-5.75-.74-.58-1.45-1.82-2.75-.87-.06,0-.28-.09-.42-.17a73.13,73.13,0,0,1-6.69-4c-2.63-2-5-4.24-7.51-6.4-1.06-.93-2.08-1.9-3.11-2.87-.3-.28-.75-.58-.8-.92-.26-2-1.71-3.33-2.37-5.08-.18-.49-.34-1-.49-1.48-.3-1-.58-2-.87-3-.19-.64-.39-1.28-.56-1.93-.08-.3,0-.64-.15-.93-.66-1.74-1.41-3.46-2-5.22-1-2.91-2-5.82-2.85-8.78a3.86,3.86,0,0,1-.12-1l-.22-.59a.11.11,0,0,1,.18-.11l0,.05c0-.49.09-1,.12-1.47s.08-1.21.85-1.31c.55-.07,1.73.59,1.76,1.08.09,1.87,2,1.92,2.9,3,.25.31.81-.15.66-.68a13.76,13.76,0,0,0-.85-2c-.29-.61-.58-1.22-.93-1.81-.9-1.53-.49-3.05.07-4.53.64-1.7,4.06-2.87,5.82-2.08.82.37,1.71.62,2.49,1.06,1.18.66,2.3,1.43,3.44,2.15s1.33.77,2.41-.22a1.1,1.1,0,0,1,1.75,0c.61.58,1.23.94,2.06.23.19-.16.93,0,1.2.3.67.63,1.22,1.05,2.18.47.59-.36,1.19,0,1.68.49,1.33,1.26,2.64,2.54,4,3.74a34.23,34.23,0,0,0,2.89,2.15c.16.11.46,0,.69,0a1.5,1.5,0,0,0-.15-.56c-.26-.32-.61-.58-.87-.9-.44-.54-.3-1,.38-1.15a2.33,2.33,0,0,1,1.08-.06c1.46.34,2.92.69,4.36,1.13.62.19,1.06.28,1.52-.28a1.1,1.1,0,0,1,.89-.38c1.65.47,3.26,1.06,4.91,1.55a2.41,2.41,0,0,1,1.58,1.58,15.37,15.37,0,0,0,2.81,4.62c.41.43.75.7,1.32.26s1-.17,1.07.49.37,1.15,1.17,1.21,1,.64.76,1.36c-.28.89-.49,1.81-.85,2.68s-.17,1.19.66,1.36a1.56,1.56,0,0,1,.73.27,13.38,13.38,0,0,1,1,1.14,6.64,6.64,0,0,1-1.35.47c-.82.11-1.66.09-2.49.14-.65,0-.87.41-.49.92a3.61,3.61,0,0,0,1,1,2.12,2.12,0,0,1,1.07,1.24,1.65,1.65,0,0,0,1.22.73c.7.07,1.4.1,2.1.12.83-.19,1.62-.41,2.22-.49a.44.44,0,0,1,.38.15,5,5,0,0,0,.7.61,31,31,0,0,0,4,.42,2.79,2.79,0,0,0,1.61-.25,1.62,1.62,0,0,1,2,.06c2,1.75,3.82.58,5.64-.26l.25-.13,0,0c.27-.32.83-.33,1.15-.66,0,0,0,0,0,0l0,0c.61-.34,1.22-.7,1.84-1a.58.58,0,0,1,.41,0c.06.18.13.47,0,.55-.69.63-1.41,1.22-2.13,1.82q-2,1.63-3.94,3.24c-.34.28-.21.35.12.47.59.22,1.59-.14,1.7.71,0,.39-.75.89-1.16,1.34s-.9,1-1.37,1.51a1.23,1.23,0,0,0-.24,1.57c.35.61.88.64,1.49.39a7.34,7.34,0,0,1,3.79-.51,2.81,2.81,0,0,1,2.08.79,3.82,3.82,0,0,0,.89.63c1.07.68,1.09.7,1.93-.22,1.45-1.59,2.84-3.24,4.32-4.8A12.63,12.63,0,0,1,247,450c.12-.08.64.14.65.26.09.78.05,1.56.13,2.34.12,1.24.29,2.47.45,3.71,0,.14.15.26.23.39.08-.16.23-.31.23-.47,0-2.36,0-4.71,0-7.07a12.87,12.87,0,0,1,.11-1.56.33.33,0,0,1,.65,0,2.51,2.51,0,0,1,.15.76c.13,3.18.21,6.37.38,9.55a9.69,9.69,0,0,1-.62,4.89,6.08,6.08,0,0,1-1.29,1.7c-.42.4-.72.19-.78-.42-.14-1.44-.73-1.72-2-.93q-2.54,1.61-5,3.31a2.87,2.87,0,0,0-.76,1c-.44.77-.79,1.59-1.26,2.33-.34.53-.4.94.12,1.35a1.53,1.53,0,0,1,.52,2.08,2.56,2.56,0,0,0-.06,2.53,1,1,0,0,1,.07.35H436.58a3.29,3.29,0,0,1,.63,0c.68.13.81-.12.81-.79,0-9.06,0-18.11,0-27.17-.6-.52-1.1-1,0-1.57v-17c-.79-1.45-1.61-2.69-4.12-1.46a.1.1,0,0,1-.11,0c-1.68-2.13-3-2.17-4.48-.95-.58.5-1.12,1.32-1.95,1.23-2.35-.28-4.33,1-6.51,1.39a1.54,1.54,0,0,0-1.37,1.62c0,.42.32.59.54.85.06.07.13.09.16.13a2.47,2.47,0,0,0-.91-.56,5.11,5.11,0,0,0-2-.12c-2.46.05-4.94.45-7.35.26a10.11,10.11,0,0,0-4.72.84c-2.48.95-3.91,3-5.63,4.66-1.37,1.35-2.6,2.62-5,2.5l-.05,0c-2.55-2.4-1.83-3.49-1.27-4.64a1.31,1.31,0,0,0-.14-1.47c-.36-.47-1-.64-1.33-1.08.66.16,1.34.24,2,.4a2.54,2.54,0,0,0,.47,0c.83,0,1.61-.14,1.92-1s-.4-1.18-.9-1.55c-.78-.58-1.36-1.18-.87-2.22.69-1.48,2.11-2.65,3.13-2.44a6.67,6.67,0,0,1,3.06,1.16,2.51,2.51,0,0,0,3.06.33,26.33,26.33,0,0,1,4.46-1.79,7.4,7.4,0,0,1,4.9,0,7.55,7.55,0,0,0,3.72.2c1.34-.24,2.69-.43,4-.68a3.88,3.88,0,0,1,2.17.06,14,14,0,0,0,7.92.66,6.48,6.48,0,0,1,4.59.4c1,.56,1.56.2,1.91-1a8.46,8.46,0,0,1,.7-2.26V382.4c-.29-.6-.61-1.05-1.37-.86C437.27,381.32,437.86,380.57,438.52,379.28ZM139.25,427.6c0,.08,0,.18-.1.23A.38.38,0,0,1,139.25,427.6Zm1.19,11.28-.17.38.16-.46v-.06A.27.27,0,0,1,140.44,438.88ZM69.37,274.64a3.61,3.61,0,0,1,1.87-1.08,4,4,0,0,0,1-.54,2.25,2.25,0,0,0-.43,1.23,2,2,0,0,1-1.48,1.84,1,1,0,0,1-1.13-.3A.89.89,0,0,1,69.37,274.64Zm66,86.19a18,18,0,0,0,.33,2.64,15,15,0,0,1,.2,2,2,2,0,0,1-2.53,2c-2.23-.35-4-1.72-6-2.57-1.77-.75-3.63-1.25-5.41-2-2.86-1.19-6.16-1.14-8.73-3.18a4,4,0,0,1-1.88-3.52c.13-1.09,0-2-1.22-2.43-.27-.1-.45-.42-.7-.61-.62-.47-1.24-.95-1.9-1.36-.44-.28-1-.59-1.38,0-.14.23.17.87.43,1.2.52.65,1.18,1.19,1.73,1.82s.41,1.14-.46,1.28a1.71,1.71,0,0,1-.93,0c-1.57-.75-3.37-1.16-4.49-2.63-.77-1-1.51-1.78-3-1.5a2.25,2.25,0,0,1-2.41-1.12,9.14,9.14,0,0,0-1.3-1.34,10.74,10.74,0,0,1-1.14-1.27c-.35-.51-.09-1,.52-.9a3.54,3.54,0,0,1,1.46.49c1.33.83,2.66,1.67,3.9,2.62s2.76.87,4.16,1.21a.41.41,0,0,0,.36-.19.49.49,0,0,0-.14-.41c-.73-.67-1.45-1.36-2.24-2a31.41,31.41,0,0,0-7.13-4.5,4.3,4.3,0,0,0-1.05-.3c-1-.13-1.22.14-1,1.19.22.87-.13,1.36-1,1.18a4.33,4.33,0,0,1-1.61-.86c-.78-.59-1.51-1.24-2.24-1.9-.3-.28-.52-.65-.8-1-1.44-1.57-2.68-3.35-4.61-4.42a7.21,7.21,0,0,0-1-.5l-6.92-2.51A25.69,25.69,0,0,0,72,334.27a8.4,8.4,0,0,1-2.86-1.74c-.17-.12-.11-.78.05-1.07.34-.59,1.39-.79,1.05-1.73a1.66,1.66,0,0,0-1.67-1.2s-.16-.53-.07-.6c.71-.56.63-1.09.07-1.7a1,1,0,0,1-.1-.73,3.54,3.54,0,0,0-1.58-4c-.41-.27-.29-.56.08-.68,1.33-.43,1.67-1.52,1.78-2.7.29-3,1.68-5.7,2.59-8.52.61-1.91,1-3.84,0-5.75a1.42,1.42,0,0,1-.16-.6,4.73,4.73,0,0,1,.07-.73,2.71,2.71,0,0,1,.55.21c.8.52,1.38.19,1.88-.47a3.22,3.22,0,0,0,.42-.66c1.55-3.71,3.06-7.43,4.65-11.12,1-2.28,2.12-4.51,3.18-6.77a5.15,5.15,0,0,0,.23-.81,4,4,0,0,0-.73.13c-1.19.45-1.19.45-1.74-.64a6.13,6.13,0,0,0-.37-.69,2.34,2.34,0,0,1,.14-2.9,6.24,6.24,0,0,0,1.53-3c.06-.73.9-.85,1.64-.88a4.11,4.11,0,0,0,1.91-.4,14.57,14.57,0,0,0,2.7-2.1A3.37,3.37,0,0,0,88,270.7c.37-1.78,1.66-3,2.63-4.4.51-.75,1-.67,1.66.07a10.85,10.85,0,0,1,1.47,2,12.09,12.09,0,0,0,3.76,4.14c1.89,1.41,3.74,2.86,5.67,4.21,3.21,2.25,5.6,5.33,8.31,8.08,1.1,1.12,2.25,2.19,3.26,3.39a21.12,21.12,0,0,1,2,3,3.92,3.92,0,0,1-.19,4c-.83,1.57-1.81,3.06-2.59,4.65s-2.13,1.71-3.52,1.94c-.25,0-.57-.19-.83-.34s-.37-.41-.6-.5a6.63,6.63,0,0,0-1.1-.25,3.06,3.06,0,0,0,.2,1,4.16,4.16,0,0,0,1,1.19,31.9,31.9,0,0,1,4.61,4.67c2.55,2.9,5.24,5.69,8,8.38a63,63,0,0,0,5,4,13.12,13.12,0,0,1,2.17,2.42,11.83,11.83,0,0,0,3.35,2.76q5.91,3.5,11.94,6.79a33.15,33.15,0,0,0,4,1.63c.68.26,1.4.44,2.07.73s.68.66.07,1.14c-1.43,1.14-2.95,2.18-4.28,3.43a62,62,0,0,0-5.55,5.7C136.73,349.25,135.58,354.91,135.42,360.83Zm101-3.59c-.75.13-1.92-.55-2,1-.17,0-.44,0-.5-.13-.49-1-1.44-1.32-2.25-1.88a10.26,10.26,0,0,1-1.82-1.69,5.94,5.94,0,0,0-3.95-2.29c-1.65-.18-3.28-.62-4.93-.84a4.88,4.88,0,0,0-2,.22c-2.5.75-5,1.56-7.47,2.35-.8.25-1.61.47-2.39.77-1.18.45-1.45,1-.92,2.18a31.75,31.75,0,0,0,6.06,9.27,33.06,33.06,0,0,1,2.25,2.61c.8,1,1,1,2,.11,1.46-1.3,3-1.32,4.16-.07a1.9,1.9,0,0,1-.1,3,14,14,0,0,1-1.28.9c-1,.73-1.1,1.38-.23,2.3s1.54,1.56,2.27,2.38c.91,1,.81,1.58-.35,2.21-1,.52-1.95,1-2.9,1.55-.66.37-1,.11-1.14-.52a9.35,9.35,0,0,0-.52-1.63c-.41-.83-.83-.9-1.63-.4a2.83,2.83,0,0,0-.37.29c-1.24,1.12-2.49,2.22-3.72,3.35-.65.6-.64.81.1,1.31s1.53.91,2.24,1.45c2.37,1.79,2.38,3.58.6,5.91a34.86,34.86,0,0,1-2.56,2.76,3.82,3.82,0,0,1-2.83,1.12c-1.4,0-1.3.11-1.86,1.38a11.3,11.3,0,0,1-1.88,3,3,3,0,0,1-3.85.7,31.75,31.75,0,0,1-4.14-2.78c-1.46-1.18-1.67-1.3-3.28-.31a8.82,8.82,0,0,1-4.39.35,1.66,1.66,0,0,1-1.21-1.48c-.06-.81.6-.89,1.1-1.12.71-.33,1.45-.59,2.16-.93s1-.85.39-1.6a6.23,6.23,0,0,0-4.15-2.3c-.37-.06-.94.39-1.23.76a6.54,6.54,0,0,1-6.17,2.66,4.56,4.56,0,0,1-2.12-.83c-2-1.45-3.91-3-5.78-4.55a30.2,30.2,0,0,1-3.59-3.51,41.13,41.13,0,0,0-8.21-7.68c-1.64-1.12-3.21-2.33-4.78-3.54a12.9,12.9,0,0,0-6.56-2.27,3.9,3.9,0,0,1-3.42-3.11,8.16,8.16,0,0,0-.75-2.35,7.42,7.42,0,0,1-1-5,3.23,3.23,0,0,0-.23-1.13,4.27,4.27,0,0,0-1.19.55,5.16,5.16,0,0,0-1.48,3.69c0,.78,0,1.57,0,2.35a10.53,10.53,0,0,1-.22,1.7,1.29,1.29,0,0,1-1.3,1.13,1.36,1.36,0,0,1-1.55-1c-.2-.81-.31-1.64-.47-2.45a35.91,35.91,0,0,1,3.16-12.76,55.75,55.75,0,0,1,3.37-6.17,12.86,12.86,0,0,1,2.37-2.49c.44-.41,1.09-1,1.65-.46a2,2,0,0,1,.27,1.55c-.28,1.7-.67,3.38-1,5.07-.11.47-.31,1,.26,1.23s.78-.24,1.09-.59c1-1.13,2.07-2.21,3.1-3.32a9.26,9.26,0,0,1,4.28-2.17c2.44-.79,4.88-1.57,7.34-2.26a7.17,7.17,0,0,1,2.61-.22,17.39,17.39,0,0,1,6.18,1.63,8,8,0,0,0,2.42.61c1.86.28,3.74.43,5.59.74,3.62.62,7.22.15,10.8-.23,3.74-.4,7.47-1,11.16-1.69a22.35,22.35,0,0,1,8.41.12c1.38.25,2.8.3,4.21.42,2.08.18,4.18.27,6.25.53a5.52,5.52,0,0,1,4.34,2.92,11.51,11.51,0,0,0,5.73,4.92c1.41.55,2.83,1.09,4.22,1.7a2.35,2.35,0,0,1,1,.89C238.47,356.1,237.8,357,236.44,357.24ZM386.86,366c-.94.87-1.49,2.09-2.66,2.82a32.74,32.74,0,0,0-3.22,2.48,5.2,5.2,0,0,0-.71.82,7.08,7.08,0,0,1-.77,1c-1.62,1.39-3.28,2.74-4.9,4.13-.94.81-1.79,1.74-2.75,2.54s-1.77,1.29-2.65,1.93a14,14,0,0,0-1.87,1.41,5.09,5.09,0,0,1-2.43,1.63,1.49,1.49,0,0,0-.65.41c-1.32,1.33-2.61,2.69-4,4s-2.63,2.55-4,3.72a13.61,13.61,0,0,1-2.75,1.77,5.19,5.19,0,0,0-2.69,2.91,18.1,18.1,0,0,1-5.34,7.42,37.57,37.57,0,0,0-3.6,3.69,2.5,2.5,0,0,1-1.88.95,6.66,6.66,0,0,0-4.85,1.81,4.9,4.9,0,0,1-2.8,1.3,27.72,27.72,0,0,0-3.32.9A1.65,1.65,0,0,1,327,413a1.43,1.43,0,0,0-2.16-.5,1.38,1.38,0,0,1-1.62-.06c-.54-.35-.92-.14-1.39.22-1.19.91-2.47,1.72-3.66,2.63a4.67,4.67,0,0,0-1.07,1.3c-1,1.7-2,3.44-3,5.13a7.09,7.09,0,0,1-5.1,3.32,4,4,0,0,1-4.5-5.51c.28-.73.7-1.41,1-2.15a28.65,28.65,0,0,0,.87-3,3.75,3.75,0,0,0-.09-1.14,4.36,4.36,0,0,0-1.06.57,8.87,8.87,0,0,0-.77,1.13c-.26.34-.56.65-.85,1-.24-.3-.49-.6-.7-.92-.11-.17-.12-.4-.22-.58a.84.84,0,0,0-1.21-.35c-.51.29-.28.74,0,1.08.37.51.8,1,1.19,1.46.6.76.65,1.3,0,1.93-1.6,1.5-3.21,3-5.53,3.38a4.13,4.13,0,0,1-4.87-2.66c-1.28-2.74-.29-5,1.19-7.17a3.74,3.74,0,0,1,1.55-1,1.54,1.54,0,0,0,.68-2.14.84.84,0,0,0-.81-.11,15,15,0,0,0-1.89,1.38c-1.23,1-2.42,2.15-3.66,3.19a3.82,3.82,0,0,1-1,.43c-.86.36-1.75.67-2.57,1.1-1.29.68-2.15.65-3-.49a12.18,12.18,0,0,1-1.6-2.85,2.33,2.33,0,0,1,.42-2.37,20.69,20.69,0,0,1,2.09-2.54c2.08-1.9,3.43-4.34,5-6.64.93-1.39,1.78-2.83,2.63-4.27a5.31,5.31,0,0,0,.56-1.29c.25-.92,0-1.58-.94-1.6-2.08-.05-4.17.07-6.26.14a1.67,1.67,0,0,0-.72.3c-1.2.72-2.41,1.43-3.59,2.18a6.67,6.67,0,0,0-1.21,1,2.47,2.47,0,0,1-4.28-.74c-1-2.47-.42-4.26,1.53-6a24.27,24.27,0,0,1,2.24-1.95,9,9,0,0,1,2.57-1.44c2.64-.77,5.29-1.68,8.23-1.22,1.35-.15,2.8-.34,4.26-.46a27.27,27.27,0,0,1,7.95.67c5.74,1.2,11.54,2,17.35,2.67a3.75,3.75,0,0,0,2.4-.5c2.59-1.46,5.2-2.88,7.8-4.32a3.25,3.25,0,0,0,.77-.53c1.67-1.72,3.29-3.5,5-5.19,1-1,2.11-1.82,3.18-2.73a33.86,33.86,0,0,0,3.2-2.75,10.58,10.58,0,0,0,2-3.11c.68-1.69,2.09-2.38,3.49-3.17.57-.32,1.09-.73,1.63-1.11a13.94,13.94,0,0,0,1.14-.81c.7-.6,1.37-1.24,2.07-1.85a3.7,3.7,0,0,1,1.09-.79,5.3,5.3,0,0,0,2.68-2.06,10.28,10.28,0,0,1,1.51-1.79,21.41,21.41,0,0,0,4.53-6.5c1.5-2.87,3-5.72,4.64-8.52q3-5.3,6.22-10.51a30.44,30.44,0,0,1,2.92-4.08,8.12,8.12,0,0,0,1.33-9,16.44,16.44,0,0,0-4.74-6.36,12.91,12.91,0,0,1-1.74-2,1,1,0,0,1,.27-1.6c.86-.6,1.74-1.17,2.54-1.85,2-1.69,3.92-3.45,5.92-5.13,1.32-1.11,2.72-2.12,4.09-3.18.29-.22.84-.43.84-.65,0-1.78,1.78-2.72,2-4.4a11.57,11.57,0,0,1,.86-2.34c.06-.14.2-.27.22-.41.35-2.52,1.75-4.68,2.49-7.06a11.21,11.21,0,0,1,1.86-3.93,15.73,15.73,0,0,0,1.6-3,10.35,10.35,0,0,1,3.18-3.63c1-.73,1.93-1.43,2.94-2.08a1.12,1.12,0,0,0,.43-1.61,2.86,2.86,0,0,0-.32-.54q-2-2.63-3.94-5.26a9.3,9.3,0,0,1-1.77-3.64c-.36-1.64-.8-3.25-1.17-4.89-.1-.44-.26-1.08,0-1.35,1.1-1.37.6-2.9.61-4.38a4.47,4.47,0,0,1,0-1.39,14,14,0,0,0,.41-5.27,13.45,13.45,0,0,1,.61-4.14,15.3,15.3,0,0,0,.09-7.16,18.8,18.8,0,0,1,.89-10.3c.28-.73.59-1.32,1.57-1.16s1.42.44,1.55,1.59a17.42,17.42,0,0,1,.2,2,2,2,0,0,0,1.5,2l.3.1c2.54.85,3.34,2.18,2.85,4.83a15,15,0,0,0-.71,3c.07,2,.43,4,.66,6,.1.93.22,1.86.24,2.8,0,2.09-.2,4.2.78,6.17a2.62,2.62,0,0,1,.14.92,7.63,7.63,0,0,1,0,.94,61.31,61.31,0,0,0,1.08,14.66,13.64,13.64,0,0,1,0,3.59,2.21,2.21,0,0,0,1.48,2.59c.84.4,1.66.86,2.47,1.32,1.63.92,2.25,2.55,2.89,4.16a1.18,1.18,0,0,1-.37,1.41,5.43,5.43,0,0,0-1.85,2.82c-.05.24-.6.4-.94.55-.1,0-.28-.11-.43-.15-.47-.13-1.18-.5-1.37-.32-.62.57.31.8.49,1.23a5,5,0,0,0,.77,1.46,3.13,3.13,0,0,0,3.93,1,4.78,4.78,0,0,1,2-.37,3.33,3.33,0,0,0,2.72-1.28c.85-1,1.47-.85,1.94.31.35.87.71,1.74,1,2.62a4.6,4.6,0,0,1-1.39,4.41,37.69,37.69,0,0,1-3.48,2.06c-1.13.6-1.44,1.33-.68,2.4a7.29,7.29,0,0,1,1.48,3.88,3.49,3.49,0,0,0,.66,1.74,28,28,0,0,1,3.25,6.42c.36.91,1,1.71,1.41,2.6,1.15,2.51,2.26,5,3.37,7.58a24.88,24.88,0,0,0,.91,2.34c1.16,2.05,1.34,4.38,1.78,6.6a6,6,0,0,1-.65,2.85c-.19.54-.75.55-1.19.22-1.47-1.1-2.83-.75-4.16.25-1.09.82-2.15,1.67-3.27,2.42a4.7,4.7,0,0,1-1.82.78,5.05,5.05,0,0,0-2.72,1.4c-1.11,1-1.84,2.28-2.84,3.29a11.71,11.71,0,0,0-3.09,4.66c-.22.69-1.09,1.23-1.76,1.68-1.08.73-1.79,1.53-1.55,3,.08.48-.31,1-.49,1.55s-.57.92-.46,1.24a2.9,2.9,0,0,1-1.25,3.28c-1.44,1.13-2.1,2.71-3.14,4.06-1.3,1.68-2.46,3.41-4.54,4.37a25.53,25.53,0,0,0-3.77,2.79A31.61,31.61,0,0,0,386.86,366Zm44.64,13.85a.5.5,0,0,1,.26,0A.93.93,0,0,1,431.5,379.87Zm4.95,1.72c-1,.34-1.68-.22-2.33-.89-.45-.46-.88-1-1.49-1a2.6,2.6,0,0,1,1.78.94c.87.83,1.56,1.15,2.2.95Z" transform="translate(-53.81 -12.61)"/><path d="M263.15,124.39a7.08,7.08,0,0,0,1.88-1.87c.62-.84.35-2.2-.42-2.25-1.6-.09-3.28-.72-4.71.81a7.61,7.61,0,0,1-4.26,2.12,34.85,34.85,0,0,0-6.72,2.09,11.75,11.75,0,0,1-4.86,1c-5.33-.09-10.66-.22-16-.31a3,3,0,0,0-1,.34,3.91,3.91,0,0,0,.84.72c1.19.53,2.42,1,3.6,1.5a4.17,4.17,0,0,0,3.19.25,10,10,0,0,1,4.79-.49,9.9,9.9,0,0,0,1.72.05l7.34-.23a1.67,1.67,0,0,1,.62,0c.32.12.79.27.85.5a1,1,0,0,1-.42.89c-1.53.87-3.1,1.67-4.66,2.48-.08,0-.21,0-.31,0l-6.8.88a1.1,1.1,0,0,0-.59.19c-.32.3-.76.64-.82,1s.38.77.7.91a7.86,7.86,0,0,0,2.1.55,17.81,17.81,0,0,0,2.19,0l0,.22q6.23-.74,12.45-1.48a3,3,0,0,0,1-.31c1.61-.87,3.19-1.79,4.8-2.66a2.22,2.22,0,0,0,1.3-2.4A4.51,4.51,0,0,1,263.15,124.39Z" transform="translate(-53.81 -12.61)"/><path d="M124.35,469a3.59,3.59,0,0,0-.73-1.18,17.37,17.37,0,0,0-4.14-2.36c-.54-.25-.86.1-1.16.51a16.71,16.71,0,0,1-1.37,1.7c-.17.18-.53.18-.8.26a2.68,2.68,0,0,1-.12-.74,6.11,6.11,0,0,1,1.18-3,3.46,3.46,0,0,0,.87-2.23,5.57,5.57,0,0,0-1.41-2.89,35.27,35.27,0,0,0-4.19-3.24c-.46-.33-1-.41-1.35.19a.81.81,0,0,0,.31,1.22,2.62,2.62,0,0,1,1.24,2.23,3.25,3.25,0,0,0,1.37,2.34,6.22,6.22,0,0,1,1.55,1.91c.41.81.05,1.32-.86,1.24s-.9.28-1,.85c-.28,1.55.55,2.83,1,4.2.06.17.42.23.64.34,1.67.83,3.36,1.64,5,2.52a1,1,0,0,1,.46.87,1.51,1.51,0,0,0,.66,1.75c.23.2.22.66.32,1h5a2.67,2.67,0,0,0-.08-2.4C125.94,472.35,125.17,470.64,124.35,469Z" transform="translate(-53.81 -12.61)"/><path d="M117.51,447.36a12.87,12.87,0,0,0-2.55-5.65c-.15-.23-.58-.54-.69-.48-.28.16-.64.52-.62.78.05,1,.23,2,.38,3.05a5.16,5.16,0,0,1,.19.85c0,.38-.3.83-.17,1.1a2.07,2.07,0,0,0,1,.9c.53.2.78.46.74,1-.17,2.34,1.69,4,2.09,6.15a.7.7,0,0,0,.58.37c.18,0,.37-.32.46-.53a2.35,2.35,0,0,0,.09-.68c-.18-2-.11-4-1.14-5.71A3.11,3.11,0,0,1,117.51,447.36Z" transform="translate(-53.81 -12.61)"/><path d="M110,418.42c-1.09-.85-2.12-1.78-3.18-2.67-.71-.6-1.42-1.21-2.18-1.75-.16-.11-.6,0-.8.18s-.07.53.06.7a12.48,12.48,0,0,0,1.38,1.7,11.9,11.9,0,0,1,2.91,3.83,1,1,0,0,0,.37.49c.47.26,1,.67,1.47.64.76-.05.66-.79.63-1.31C110.71,418.9,110.66,418.91,110,418.42Z" transform="translate(-53.81 -12.61)"/><path d="M121.95,441.37a.91.91,0,0,0,.54.62,3.31,3.31,0,0,0,2.89-1.78,28.27,28.27,0,0,0,.59-2.77c-.19-.29-.36-.8-.7-1s-.78.18-1.05.43a11.9,11.9,0,0,0-.95,1.24c-.19.23-.47.58-.68.56-1.25-.1-1.17.39-.73,1.28C122,440.38,121.85,440.93,121.95,441.37Z" transform="translate(-53.81 -12.61)"/><path d="M141.9,447.88a.93.93,0,0,0-1.27.59c-.36,1.18-1.32,1.84-2.1,2.67a6.38,6.38,0,0,0-1,1.37.78.78,0,0,0,.45,1.15c.52.21.89,0,1.06-.56a2.14,2.14,0,0,1,.43-.78c.87-1,1.76-2,2.63-3a4.23,4.23,0,0,0,.4-.74C142.28,448.31,142.14,448,141.9,447.88Z" transform="translate(-53.81 -12.61)"/><path d="M118.2,437.55c.09.26.34.59.56.64a1,1,0,0,0,.75-.38,10.67,10.67,0,0,0,1.17-1.66,12.39,12.39,0,0,0,.63-1.67c-.23-.4-.38-1-.7-1.11a1.56,1.56,0,0,0-1.22.38C117.91,435,117.63,435.89,118.2,437.55Z" transform="translate(-53.81 -12.61)"/><path d="M127.72,435.95c.18-.16.47-.29.52-.49.33-1.3.84-2.6,0-3.92-.3-.49-.57-1-.86-1.51-.18.59-.36,1.17-.52,1.76a1.14,1.14,0,0,0,0,.31c.16,1.07.31,2.15.49,3.22A2.28,2.28,0,0,0,127.72,435.95Z" transform="translate(-53.81 -12.61)"/><path d="M120.84,423.59c-.05-1-.52-1.62-1.06-1.62s-1.59,1-1.31,1.27a4,4,0,0,0,1.65,1C120.29,424.3,120.68,423.74,120.84,423.59Z" transform="translate(-53.81 -12.61)"/><path d="M149.16,438.12a1.33,1.33,0,0,0-.65.54c-.11.15-.08.39-.11.59a13.22,13.22,0,0,0,.31,1.38.52.52,0,0,0,.47.2,2.76,2.76,0,0,0,.54-2.27C149.59,438.35,149.3,438.08,149.16,438.12Z" transform="translate(-53.81 -12.61)"/><path d="M113.46,439.76c0-.44-.89-1.24-1.13-1a4.32,4.32,0,0,0-.8,1.56c0,.11.32.37.42.48C112.83,440.76,113.45,440.28,113.46,439.76Z" transform="translate(-53.81 -12.61)"/><path d="M107.3,453.79c.08.56.27,1.18,1,1.09.34,0,.64-.35,1.24-.7l-1.92-1.11C107.52,453.31,107.27,453.57,107.3,453.79Z" transform="translate(-53.81 -12.61)"/><path class="cls-1" d="M438.14,378.12c-.4-.37-.72-1-1.42-.43-.42.34-.76.17-1.06-.22s-.71-.31-.92.16a1.17,1.17,0,0,1-1.55.67c-.77-.21-.9-.73-.45-1.39a8.77,8.77,0,0,0,1-1.73c.26-.68,0-1-.73-1a13.26,13.26,0,0,0-2.48-.07,17.63,17.63,0,0,0-3,.86c-.09,0-.13.48-.06.69.26.76.35,1.41-.48,1.91-.38.23-.26.46.13.65a3.12,3.12,0,0,1,1,.68.72.72,0,0,1-.09.69.66.66,0,0,1-.65,0,1.93,1.93,0,0,0-1.92-.81c-.82.11-.95-.94-1.44-.9s-.85.94-1.28,1a4.55,4.55,0,0,1-2.74-.3,3.51,3.51,0,0,0-1.95-.27c-.3,0-.68.42-.85.74-.52.95-.94,1.95-1.44,2.91a1,1,0,0,1-.57.47c-1.48.23-3,.41-4.46.6-.21,0-.45.13-.62.06a3.64,3.64,0,0,0-3.53,0c-.15.09-.73-.32-.93-.62a2.06,2.06,0,0,0-2.33-1.13,1.56,1.56,0,0,1-2-1.11c-.2-.62-.61-.37-.7,0-.42,1.79-1.69,2.42-3.34,2.77-.69.15-1.21.47-1.81-.18s-1.61-.38-2.36-.19-.67.94-.68,1.6a5.85,5.85,0,0,1-.23,1.55,1.62,1.62,0,0,1-2.51.91,1.11,1.11,0,0,1-.41-1.71,17.45,17.45,0,0,0,.76-1.82c.09-.24.08-.56.24-.74,1.6-1.78,2.45-4.07,4-5.88a4.4,4.4,0,0,1,1.23-.92,6.68,6.68,0,0,0,2.73-2.5,3.16,3.16,0,0,1,1.1-1c1.47-.89,3-1.64,3.94-3.23a1.12,1.12,0,0,1,1.37-.48,1.76,1.76,0,0,0,2-1,18.66,18.66,0,0,1,1.81-2.12c.1-.12.32-.19.34-.31.27-1.48,1.4-2.47,2.06-3.71.46-.87,1-1.36,1.89-1.32a1.49,1.49,0,0,0,1.6-1,1.69,1.69,0,0,1,1.5-1,3.35,3.35,0,0,0,2.84-2.31c.91-2.11,2-4.14,4.49-4.83a3.23,3.23,0,0,1,.91-.19,2.25,2.25,0,0,0,2.43-1.27c.4-.82,1.11-.75,1.78,0,1,1,1,1,2.41.51a4.71,4.71,0,0,1,1.54-.14,1.79,1.79,0,0,0,1.94-1.88c0-.68-.43-.94-1-.63-.09,0-.17.12-.26.17-.46.28-.77,1.08-1.43.7a7.75,7.75,0,0,1-1.73-1.49,16.1,16.1,0,0,1-1.19-1.63c-.57-.78-.47-1.18.39-1.57a9.89,9.89,0,0,1,7.58-.76,6,6,0,0,0,1.56.1v21c-.44.81-1.11.6-1.73.32a3,3,0,0,0-3.79.79c-.19.22-.45.43-.37.78.27-.07.41-.3.58-.49,1.4-1.57,2.09-1.69,4-1,.78.28.77,1.1,1.33,1.48Z" transform="translate(-53.81 -12.61)"/><path class="cls-1" d="M55.57,239a10.1,10.1,0,0,1,1.72,0,2.55,2.55,0,0,0,2.58-.66c.57-.59,1.2-.51,1.75.16a2,2,0,0,0,.85.64c1.29.4,2.61.72,3.9,1.1.64.19,1,.06,1.05-.67a1,1,0,0,1,.81-1c.62-.17.92.2,1.3.61a3.5,3.5,0,0,0,1.46,1c1.61.47,1.89.22,2-1.46a2.52,2.52,0,0,1,2.19-2.47c.79-.11,1.26.3.89.94-.65,1.13-.53,2.56-1.52,3.53-.39.39-.22.8.13,1.09,1,.79,1.91,1.67,3.36,1.25a.83.83,0,0,1,.72.34c.36.73.63,1.51.94,2.27a3.4,3.4,0,0,0,.48.95,26.52,26.52,0,0,0,2.57,2.73,2.92,2.92,0,0,1,.86,3,6,6,0,0,0,.61,4.35,11.32,11.32,0,0,1,1.09,3.57,4.43,4.43,0,0,1-.34,2.11,3.33,3.33,0,0,0-.17,2.26,2.56,2.56,0,0,1-1.72,3.11c-.39.15-.8.24-1.18.4-2.89,1.21-5.3,3.18-7.8,5a1.81,1.81,0,0,0-.64,1.31c0,1.4-.86,2.21-1.76,3s-3.14,0-3.49-1.1a.94.94,0,0,1,0-.74c.8-.95,1.49-2,2.81-2.38,2.32-.61,2.82-1.4,2.33-3.66a2.4,2.4,0,0,1,0-1.07,16.87,16.87,0,0,1,2.79-6.24c.85-1.09.32-2.21.57-3.29,0-.09-.19-.33-.27-.32a1.06,1.06,0,0,0-.67.23c-.84,1-1.65,2.12-2.46,3.19A3.24,3.24,0,0,1,71,263.52c-.43,0-.69,0-.62-.58a4,4,0,0,0,0-2c-.73-1.68.47-2.51,1.3-3.55a6.94,6.94,0,0,0,.51-.86A3.36,3.36,0,0,0,71.1,256a3,3,0,0,0-2.63,1.47,5.57,5.57,0,0,1-3.78,2.27,1.63,1.63,0,0,0-1,.66,9.84,9.84,0,0,1-5,3.6c-.51.2-.95.3-1.19-.48-.44-1.41-.56-1.41-2-.68Z" transform="translate(-53.81 -12.61)"/><path class="cls-1" d="M438.14,429.94c-.46-.24-.91-.51-1.39-.7-.31-.13-.73-.3-1-.19a2.65,2.65,0,0,1-2.64-.51l-.66-.42c-1.3-.85-2.29-.7-2.92.69a1.3,1.3,0,0,1-1.43.86,19.84,19.84,0,0,0-2.66.08,5.07,5.07,0,0,0-2,.69,2.46,2.46,0,0,1-1.85.6c-.3,0-.65.19-1,.3a5.26,5.26,0,0,0,.41,1.07c.22.34.59.59.84.92.1.14.13.49,0,.56a1.64,1.64,0,0,1-.67.19.19.19,0,0,1-.14-.06c-1.84-1.82-4.15-.92-6.27-1-1.39-.06-2.8.25-4.21.31a5,5,0,0,1-1.83-.27,1.62,1.62,0,0,0-1.74.26,4.09,4.09,0,0,1-1.51.81,5.91,5.91,0,0,0-3.44,2.55c-.39.55-.69,1.14-1.46,1.33-.29.07-.49.5-.72.77-.89,1-1.77,2.06-3.28,2.21a2.28,2.28,0,0,0-1.07.59c-.59.49-1.08.68-1.45-.21a.79.79,0,0,0-.26-.39,4,4,0,0,1-2-2.94c-.21-.91-.33-1.47.37-2.19s.45-1.58-.47-1.76c-.22,0-.48.13-.73.14a3.69,3.69,0,0,1-1.32-.06,1.3,1.3,0,0,1-.63-.78c0-.11.37-.4.6-.58.58-.43,1.17-.87,1.78-1.26.38-.25.7-.3,1,.26.53,1,1.57.81,2.48.84a.57.57,0,0,0,.41-.37c0-.16-.18-.34-.3-.5a.37.37,0,0,0-.13-.08c-1.8-1-1.8-1-1.55-3a.59.59,0,0,1,0-.16c.55-1.23,1.93-1.86,2.32-3.21a4.25,4.25,0,0,1,2.9.23,32.08,32.08,0,0,0,3.24,1.48,2.87,2.87,0,0,0,1.64,0,3.34,3.34,0,0,0,1.33-.81,2.52,2.52,0,0,1,2.52-.88.85.85,0,0,0,.61-.09c1.8-1.16,3.66-.63,5.45-.1a6.4,6.4,0,0,0,3.23.19c1.43-.3,2.87-.59,4.32-.79,1.27-.18,2.6-.53,3.65.65.11.12.38.12.58.14a26.46,26.46,0,0,0,7.71-.2,2.83,2.83,0,0,1,2.78.58c.44.44.81.17,1.11-.34.41-.72.91-1.38,1.37-2.07Z" transform="translate(-53.81 -12.61)"/><path class="cls-1" d="M438.14,275.72c-1.73-1.19-3.57-.68-5.41-.37a5.2,5.2,0,0,1-2,0,4.55,4.55,0,0,0-4.5,1.07,7.6,7.6,0,0,1-1,.8c-.71.49-1,1-.37,1.79.5.65.26,1.11-.58,1a7.38,7.38,0,0,1-2.6-.89,6.23,6.23,0,0,0-2.1-.82,10.73,10.73,0,0,1-3.25-1.43.83.83,0,0,1,0-1.46c1.3-1,2.62-2,4-3a1.42,1.42,0,0,0,.83-1.49,7.11,7.11,0,0,0-1.17-3.48,9.47,9.47,0,0,1-1.63-7.28c.16-.87.16-1.76.26-2.64s.19-1.66.35-2.47a2.08,2.08,0,0,1,1.64-1.52,1.13,1.13,0,0,1,1.49.8c.31.88.52,1.81.8,2.7a25.73,25.73,0,0,0,1,3c.56,1.22,1.13,1.31,2.21.6.34-.22.61-1,1.07-.47a2.42,2.42,0,0,1,.16,1.61c0,.33-.4.6-.56.93-.41.83-.13,1.44.8,1.6a12.47,12.47,0,0,0,2.49.24,10.21,10.21,0,0,1,4.51,1.06,8,8,0,0,0,2.41.32c.35,0,.71,0,1.07,0Z" transform="translate(-53.81 -12.61)"/><path class="cls-1" d="M55.57,272.27a4.08,4.08,0,0,0,3.29-1.17A7.8,7.8,0,0,0,60,269.48c.21-.35.26-.81.52-1.1a.69.69,0,0,1,1.27.35,5.31,5.31,0,0,1-.1,2c-.35,1.35-.58,2.62.3,3.89.28.4.23,1,.42,1.49.32.79.75.86,1.41.31.2-.17.35-.41.58-.51a1,1,0,0,1,1.37.34.87.87,0,0,1-.32,1.23c-.79.6-1.59,1.17-2.37,1.78a13.88,13.88,0,0,0-1.74,1.47c-.48.52-.87.61-1.21,0s-.77-.62-1.35-.18c-1,.75-2.09.28-3.15.21Z" transform="translate(-53.81 -12.61)"/><path class="cls-1" d="M55.57,291.11a2.55,2.55,0,0,0,2.65.3c1.15-.42,1.34-.29,2.15.88.68,1,.71,1.6.1,2.41a4.48,4.48,0,0,0-.73,1,2.76,2.76,0,0,1-2.07,1.72l-2.1.61Z" transform="translate(-53.81 -12.61)"/><path class="cls-1" d="M55.57,313.41c1.61-.72,3.22-1.45,4.85-2.15.26-.11.73-.21.87-.08a2,2,0,0,0,2.12.52.56.56,0,0,1,.55.92A9.11,9.11,0,0,1,61,315.08a33.73,33.73,0,0,1-5.48,1.16Z" transform="translate(-53.81 -12.61)"/><path class="cls-1" d="M438.14,382.83a13.08,13.08,0,0,0-1.5.19,2.18,2.18,0,0,1-2.78-1c-.81-1.14-1-1.18-2.24-.65a1.33,1.33,0,0,1-.74.18c-.47-.13-1.07-.25-1.31-.59-.36-.5.08-1,.53-1.3s1-1,1.78-.35a.51.51,0,0,0,.43.08c1.39-.59,2.29.16,3,1.18A1.3,1.3,0,0,0,437,381c.4-.13.79-.28,1.18-.42Z" transform="translate(-53.81 -12.61)"/><path d="M438.14,365.55c-1-.22-1.74-1.1-2.89-1-.69.06-1.17.13-1.48.84-.52,1.19-1.82,1.46-2.77,2.15-.12.09-.5-.05-.67-.19a.57.57,0,0,1-.06-.56c.91-1,1.18-2.52,2.47-3.34a3.55,3.55,0,0,1,3.81-.28,10.2,10.2,0,0,0,1.61.5Z" transform="translate(-53.81 -12.61)"/><path class="cls-1" d="M55.57,308.7c.69-.55,1.39-1.08,2.06-1.65.45-.38.79-.63.9.24s.64,1,1.35,1c.26,0,.51.23.77.35-.14.26-.22.64-.44.76-.9.47-1.65,1.26-2.84,1.1a5.44,5.44,0,0,0-1.8.41Q55.57,309.8,55.57,308.7Z" transform="translate(-53.81 -12.61)"/><path class="cls-1" d="M55.57,194.37c.42-.1,1.07-.41,1.23-.25.59.59,1.56,1,1.49,2.05a8.81,8.81,0,0,1-.16,1.08,3.91,3.91,0,0,1-.34,1.32c-.08.12-.73-.23-1.07-.14a4.49,4.49,0,0,0-1.14.66Q55.57,196.73,55.57,194.37Z" transform="translate(-53.81 -12.61)"/><path d="M193.77,476.43l-5.42-5.85c-.18-.19-.44-.32-.57-.53a2,2,0,0,1-.15-.66c.19,0,.43,0,.56.15,1.06.93,2.15,1.83,3.14,2.84,1.28,1.3,2.47,2.7,3.7,4Z" transform="translate(-53.81 -12.61)"/><path class="cls-1" d="M55.57,266.3A3.89,3.89,0,0,1,58.14,268c.17.2.22.79.09.89-.85.66-1.76,1.24-2.65,1.85Z" transform="translate(-53.81 -12.61)"/><path class="cls-1" d="M55.57,283.89c.71-.29,1.4-.6,2.12-.86.15-.05.37.09.56.14-.07.17-.09.43-.22.51-.81.51-1.64,1-2.46,1.47Z" transform="translate(-53.81 -12.61)"/><path class="cls-1" d="M438.14,448.47a4.11,4.11,0,0,1-1.15-.31,1.31,1.31,0,0,1-.17-1.68c.67-.69.92.14,1.33.42Z" transform="translate(-53.81 -12.61)"/><path class="cls-4" d="M206.92,210.5c1.09.13,1.81.27,2.54.29,2.56.09,5.12.23,7.67.16a15.54,15.54,0,0,0,3.31-.8,8.21,8.21,0,0,1,.9-.26c2.64-.36,5.28-.74,7.93-1a10.08,10.08,0,0,1,2.81.07,1.72,1.72,0,0,1,1.08,2.95c-.19.25-.48.41-.67.66a6.09,6.09,0,0,0-.46.87,9,9,0,0,0,1.27.33.62.62,0,0,0,.47-.36c.5-1.52,1.8-1.7,3.1-2,2-.44,4.06-.94,6.08-1.44,1.18-.29,1.26-.46.57-1.5a1.35,1.35,0,0,1,0-1.6,3.13,3.13,0,0,1,4.65-1.09,2.46,2.46,0,0,0,1.3.34c.78,0,1.56-.23,2.34-.26s1.65.07,2.47.12c.26,0,.52.1.77.1,4.28.09,8.57.16,12.85.28.58,0,1.4.13,1.68.51.47.64-.19,1.25-.63,1.75a8.35,8.35,0,0,1-4.51,2.94c-1.11.24-2.16.77-3.26,1.1a19.84,19.84,0,0,1-2.59.55c-1.24.19-2.49.29-3.72.47-2.53.38-5.05.78-7.57,1.19a2.84,2.84,0,0,0-1.2.31c-1.12.83-2.44.83-3.72,1.06a11.11,11.11,0,0,0-4.85,2.44,6.28,6.28,0,0,1-3.37,1.52,4.44,4.44,0,0,0-1.34.4,4.82,4.82,0,0,1-4.64-.47,14.37,14.37,0,0,0-8.13-1.79c-2,.07-4,0-5.93.05-1.44,0-2.57-.82-3.78-1.41a9.15,9.15,0,0,1-4.07-3.06c-.11-.18-.28-.32-.38-.5-.37-.68-1-1.44-.49-2.15C205.71,210.78,206.56,210.66,206.92,210.5Z" transform="translate(-53.81 -12.61)"/><path class="cls-1" d="M70.39,192.61c-.23.49-.42,1-.67,1.42-.94,1.68-.87,2.41.33,4a26.46,26.46,0,0,1,1.89,2.69c.63,1.06.43,1.61-.53,2.42a9.5,9.5,0,0,0-1.33,1.48c-.55.72-1.24.93-1.88.5a1.62,1.62,0,0,1-.41-2.31c.33-.42,1.1-.68.69-1.39s-1.11-.17-1.68-.22c-1.57-.13-2.61,1.22-4.08,1.34-.16,0-.36.47-.41.75-.15.87-.33,1.63-1.44,1.74-.3,0-.54.47-.84.66a2.29,2.29,0,0,1-1.09.52,1.66,1.66,0,0,1-1.15-.57c-.15-.2,0-.8.23-1.07a17,17,0,0,1,1.7-1.82,2.13,2.13,0,0,0,.68-2.12c-.09-.42-.16-1.06.07-1.28.62-.62.52-1.11.17-1.8a20.52,20.52,0,0,1-1.19-2.88c-.45-1.36-.2-1.66,1.21-1.93a3.31,3.31,0,0,0,2.46-2c.87-1.87,1.73-3.75,2.6-5.63a2.09,2.09,0,0,1,.43-.64c.39-.37.61-.69.16-1.19a.67.67,0,0,1,0-.67.7.7,0,0,1,.67-.08c.76.73,1.5.39,2.32.13a3.48,3.48,0,0,1,1.68,0c1.06.22,1.12.42.66,1.48-.06.14-.2.29-.19.42A2.76,2.76,0,0,1,70,187.61c-.44.26-.35,1.34-.62,2a1.73,1.73,0,0,0,.43,1.86A8.17,8.17,0,0,1,70.39,192.61Z" transform="translate(-53.81 -12.61)"/><path class="cls-1" d="M394.48,424.15a4.35,4.35,0,0,1-.32.59c-.67.79-1.4,1.53-2,2.35-.88,1.18-2.24,1.48-3.48,2a1.31,1.31,0,0,1-1-.21,4.81,4.81,0,0,0-3.32-.52c-1.28.13-2.58.08-3.88.1l-2.66,0a6.65,6.65,0,0,1-1.4,0,10.29,10.29,0,0,1-1.56-.59c.31-.36.6-.76.94-1.09.79-.76,1.6-1.5,2.42-2.23a4.38,4.38,0,0,1,2.45-1.27c1.36-.16,1.81-1.84,1.92-3.07a5,5,0,0,0-.08-.93c-.15-1.4-.11-2.7,1.39-3.46.58-.29.46-1.51,1.32-1.3.51.12.87.83,1.31,1.27.22.22.44.54.71.61,1.58.41,2.3,1.89,3.48,2.8a3.09,3.09,0,0,1,.71,1.68,2.74,2.74,0,0,0,1.87,2.28C393.73,423.33,394.09,423.83,394.48,424.15Z" transform="translate(-53.81 -12.61)"/><path class="cls-1" d="M82.52,236.46c-.19-1.92.51-2.7,2.1-2.63a3.94,3.94,0,0,0,2.63-.8,3.35,3.35,0,0,1,3.14-.15c.85.26.94,2.2.23,3.06-.13.16-.32.27-.46.42-.34.36-1,.62-.57,1.27a1.69,1.69,0,0,0,2.11.36,2.41,2.41,0,0,0,.6-.72c.57-1.05,1.69-1.36,2.59-1.94.48-.3.79,0,1,.43a1.51,1.51,0,0,1-.44,1.72A10.56,10.56,0,0,1,92,240.07a2.85,2.85,0,0,0-.81.7c-.34.34,0,1.07-.81,1.19s-1.71.51-2.6.11a7.24,7.24,0,0,0-.87-.36,1.75,1.75,0,0,0-2.41,1.47c-.12.69-.17,1.39-1,1.59-.52.13-1.83-.74-2.12-1.4a3.42,3.42,0,0,1-.29-1.05,3.85,3.85,0,0,0-1-2.38c-.31-.33-.54-.92-.89-1s-.76.38-1.16.61c-.58.33-1.07.15-1.12-.52a2.12,2.12,0,0,1,.31-1.46,15,15,0,0,1,2.49-2.13,1.38,1.38,0,0,1,1.24.05c.48.31.27.83,0,1.23,0,0-.08.08-.1.12-.13.41-.25.82-.37,1.23.39.07.85.3,1.17.18a1.8,1.8,0,0,0,.91-.9A1.76,1.76,0,0,0,82.52,236.46Z" transform="translate(-53.81 -12.61)"/><path class="cls-1" d="M98.39,180.86c0-.62.12-1.25.12-1.87a3.13,3.13,0,0,1,2.51-3.31,1.29,1.29,0,0,0,.94-1.83c-.2-.68-.5-1.27-1.42-1.11-.24,0-.76-.17-.75-.25a1.34,1.34,0,0,1,.3-.95c.64-.47,1.25-.84,1.23-1.82,0-.52,1.68-1.11,2.14-.83.1.06.2.29.16.37-.36.71.05,1.3.19,2a2,2,0,0,0,1.44,1.66c.37.12.65.52,1,.72a4.47,4.47,0,0,0,1.39.57c1.13.17,1.13.13,1.14,1.31,0,.78,0,1.56,0,2.34.06,1.28-.51,1.93-1.75,1.72-1-.16-1.89-.46-2.6.41a3.34,3.34,0,0,0-.38,2.82c.11.7.35.9,1,.84s1,.44,1,1.09-.1,1.34-.89,1.44a20.91,20.91,0,0,0-2.46.09c-1.58.41-2.25-.49-2.83-1.66a1.39,1.39,0,0,0-.38-.49A3.08,3.08,0,0,1,98.39,180.86Z" transform="translate(-53.81 -12.61)"/><path class="cls-1" d="M63.53,307c-.55-1.07,0-2.09.63-3.16a2.56,2.56,0,0,0,.11-1.38,5.05,5.05,0,0,1,.68-3.6c.42-.58.15-1.06-.2-1.56-.77-1.11-.81-1.8-.25-2.56a2.19,2.19,0,0,1,2.7-.62,26.25,26.25,0,0,1,3.71,2,2.09,2.09,0,0,1,.74,2.52,4.46,4.46,0,0,1-.2.43c-.54,1.19-1.51,2.12-1.77,3.52-.23,1.22-1.37,1.91-2.41,2.54a6,6,0,0,0-.68.56,6.91,6.91,0,0,0,.74.46c.45.21.92.38,1.39.57a5.54,5.54,0,0,1-1.3,1,14.85,14.85,0,0,1-2.73.66C63.62,308.5,63.49,308.33,63.53,307Z" transform="translate(-53.81 -12.61)"/><path class="cls-1" d="M435.56,442.85c-.16,1.35-.31,2.77-.52,4.18,0,.11-.56.3-.67.21a1.46,1.46,0,0,0-2,0,1.18,1.18,0,0,1-1.72-.82c-.26-1.78-1.82-2.31-2.89-3.3a1.14,1.14,0,0,0-.94,0c-.53.2-1,.6-1.51.78-1.17.39-1.53.17-2-1a5,5,0,0,0-.52-.94c-.61-.87-.52-1.24.44-1.59.19-.07.42-.07.61-.14.42-.16.44-.41.08-.66s-.83-.45-1.19-.74a1.29,1.29,0,0,1-.32-1.81c.42-.68,1-1,1.71-.48a20.45,20.45,0,0,1,2.6,2.14c.37.37.35.9-.23,1.33-.82.61-.78.66.15,1.09,1.4.65,1.58.62,2.34-.68.29-.49.58-.69,1.13-.52a14.22,14.22,0,0,0,4.21,1C435.18,440.89,435.61,441.75,435.56,442.85Z" transform="translate(-53.81 -12.61)"/><path class="cls-1" d="M428.66,296.79a4.65,4.65,0,0,1,3.23,2.35c.32.6,0,1.07-.34,1.57-.7,1-1.34,2-2,3-.39.6-.52,1.17.31,1.53a.79.79,0,0,1,.49,1c-.16,1.13.11,1.51,1.14,1.79.25.07.53,0,.77.14a6,6,0,0,1,.79.43,4,4,0,0,1-.62.78c-1.28,1-1.31,1-2.35-.31s-1.35-1.38-2.93-.75c-.15.06-.29.19-.43.18-.39,0-.92,0-1.11-.22a1.41,1.41,0,0,1,0-1.13,10.12,10.12,0,0,0,.82-2,9.81,9.81,0,0,0-.27-3.07,4.23,4.23,0,0,1,1.23-4.54A6.29,6.29,0,0,1,428.66,296.79Z" transform="translate(-53.81 -12.61)"/><path class="cls-1" d="M428.6,288.62c-1.39-.28-2.52-.45-3.63-.73s-1.45-2.09-.63-3.16c.54-.7,1.2-1.3,1.76-2a2,2,0,0,0,.6-2c-.27-1,.5-1.51,1.39-1,1.45.86,3.17,1.47,3.58,3.44a1.32,1.32,0,0,0,.36.5c1.06,1.21,1.09,1.36,0,2.54a10.29,10.29,0,0,1-1.84,1.68A7.18,7.18,0,0,1,428.6,288.62Z" transform="translate(-53.81 -12.61)"/><path class="cls-1" d="M415.75,439.73c.16,1.74,0,2-1.54,2.07a9.44,9.44,0,0,0-4.07,1,1.34,1.34,0,0,1-1.87-.56c-.36-.48-.89-.84-1.24-1.33a1.45,1.45,0,0,1-.31-1.1c.11-.3.59-.51,1-.64.16-.06.6.16.61.28.11,1.26.8.61,1.08.25,1.22-1.59,3.22-2.28,4.38-4,.58-.85,2.49-1.06,3.48-.49a.79.79,0,0,1,.16.74c-.71,1.59-.73,1.59.6,2.78.35.31.75.57,1.07.92a2.83,2.83,0,0,1,.37.77c-.31.12-.75.44-.92.34-.59-.38-1.07-.93-1.64-1.37-.21-.17-.58-.34-.78-.26S415.81,439.63,415.75,439.73Z" transform="translate(-53.81 -12.61)"/><path class="cls-1" d="M352.6,475.12a4.51,4.51,0,0,1-1.18-.73,1.71,1.71,0,0,0-1.36-.55,8.61,8.61,0,0,1-2.12-.37c-1-.27-2-.6-3-1-.22-.08-.38-.33-.57-.51.19-.15.37-.3.57-.43a2.17,2.17,0,0,1,.42-.2l1.51-.58c-.19-.47-.43-.93-.58-1.42-.25-.8.41-1,.93-1.17s.88,0,.92.63a2.81,2.81,0,0,0,.29.87c.22.52.46,1,.69,1.53a5.55,5.55,0,0,1,1.31-1,10.42,10.42,0,0,1,2.7-.66c.81-.07.92.3.46,1.07-.64,1.06-.65,1.2.32,1.66.74.36,1.24.8,1.08,1.66S354.07,475.14,352.6,475.12Z" transform="translate(-53.81 -12.61)"/><path class="cls-1" d="M242.14,383.14a9.27,9.27,0,0,1,.79.51c.83.68,1.69,1.35,2.48,2.08a17.07,17.07,0,0,1,1.39,1.61c.13.16.2.4.36.5,1,.65,2.08,1.27,3.13,1.89.5.29,1.1.49.89,1.26a1.35,1.35,0,0,1-1.77.85,9.51,9.51,0,0,1-2-.91c-1.4-.89-2.76-1.87-4.13-2.8-.38-.26-.79-.49-1.15-.78a7,7,0,0,1-1.49-1.34c-.29-.42-.54-1.25-.33-1.53A7.49,7.49,0,0,1,242.14,383.14Z" transform="translate(-53.81 -12.61)"/><path class="cls-1" d="M105.28,209.67a4.65,4.65,0,0,1-.45.24c-1,.37-1.93.76-2.92,1.07a1,1,0,0,1-.86-.25c-.77-1-.72-1-1.83-.55s-2.07.64-3.11.92c-.52.14-.62,0-.41-.56a4.34,4.34,0,0,0,0-1.34,1.57,1.57,0,0,1,.13-.42c.14.05.28.09.41.15s.05.1.09.12l.85.51a3.14,3.14,0,0,0,.33-1.09,1.46,1.46,0,0,1,.58-1.31c1-1,1.79-1.34,3.06-.38.79.6,2,.65,2.84,1.18C104.56,208.29,104.85,209,105.28,209.67Z" transform="translate(-53.81 -12.61)"/><path class="cls-1" d="M68.48,266.25c.11.24.32.75.58,1.24s.08.93-.51,1a3.91,3.91,0,0,0-2.37.63c-.11.09-.73-.16-.85-.39a2.2,2.2,0,0,0-2.82-1.31,1.15,1.15,0,0,1-1-.44,1.57,1.57,0,0,1,.1-1.28,1.15,1.15,0,0,1,1.08-.26,3.78,3.78,0,0,0,4.3-.89c.74-.64,1.52-.23,1.6.77A7.81,7.81,0,0,1,68.48,266.25Z" transform="translate(-53.81 -12.61)"/><path class="cls-1" d="M74.19,381.57c1,.21,1.5.7,1.43,1.69,0,.36-.1.72-.16,1.08s0,1.24-.28,1.4a2.57,2.57,0,0,1-1.79.27A18.92,18.92,0,0,1,70,384.75c-.93-.44-1-1.14,0-1.6C71.33,382.51,72.78,382.08,74.19,381.57Z" transform="translate(-53.81 -12.61)"/><path class="cls-1" d="M303.06,336.57c0,1.26-1.74,2.63-3.22,2.57-1,0-1.77-1.18-1.78-2.56a2.38,2.38,0,0,1,2.5-2.44A2.34,2.34,0,0,1,303.06,336.57Z" transform="translate(-53.81 -12.61)"/><path class="cls-1" d="M76.59,391.07A7.07,7.07,0,0,1,75,389.83c-.43-.58,0-1.22.48-1.64a3.19,3.19,0,0,0,1.23-2.1c0-.18.3-.39.5-.46s.37.19.44.36c.19.43.28.9.46,1.33.27.64.57.68.95.05.28-.46.47-1.06,1.14-.66s.44,1,0,1.46c-.77.84-1.59,1.63-2.44,2.4A4.69,4.69,0,0,1,76.59,391.07Z" transform="translate(-53.81 -12.61)"/><path class="cls-1" d="M328.14,465.28a3.81,3.81,0,0,1-.89-.22c-.9-.43-1-1.09-.09-1.59a17,17,0,0,1,2.69-1.23,1.44,1.44,0,0,1,1.08.27c.83.56,1.22.45,1.44-.54,0-.15,0-.32,0-.47a.66.66,0,0,1,.93-.55c.47.12.46.41.39.84-.42,2.56-.5,2.66-3.08,3.13C329.86,465.06,329.08,465.14,328.14,465.28Z" transform="translate(-53.81 -12.61)"/><path class="cls-1" d="M255.21,366.74c-1.6,0-2.14-1-1.42-2.09s1.41-2.07,2.16-3.07a1.07,1.07,0,0,1,1.5-.44,1.11,1.11,0,0,1,.47,1.61c-.6,1.16-1.23,2.3-1.92,3.41C255.8,366.48,255.37,366.64,255.21,366.74Z" transform="translate(-53.81 -12.61)"/><path class="cls-1" d="M61.71,103.42a5.25,5.25,0,0,1,.5-1.68c.23-.3.82-.3,1.22-.5.15-.08.31-.45.26-.53-.38-.53-.13-.87.26-1.21s.57-.33.71.12c.25.79.76.66,1.38.52.28-.06.63.15.94.24-.19.32-.32.82-.6.92a3,3,0,0,0-1.75,1.88,2.09,2.09,0,0,1-.62.89c-.44.32-1.11.83-1.42.69S62,103.84,61.71,103.42Z" transform="translate(-53.81 -12.61)"/><path class="cls-1" d="M62.26,218a6.61,6.61,0,0,1-.66-.79,1.09,1.09,0,0,1,0-1.43,5.25,5.25,0,0,1,4-2c.14,0,.39,0,.41.11a6.72,6.72,0,0,1,.35,2.1c0,.31-.71.62-1.15.82C64.31,217.25,63.38,217.58,62.26,218Z" transform="translate(-53.81 -12.61)"/><path class="cls-1" d="M265.24,367a3.64,3.64,0,0,1-.16.64c-.65,1.24-1.3,2.48-2,3.7a.89.89,0,0,1-1.45.3c-.54-.37-1.08-.84-.68-1.53a36.5,36.5,0,0,1,2.4-3.63,1.38,1.38,0,0,1,1.2-.26C264.87,366.32,265.07,366.8,265.24,367Z" transform="translate(-53.81 -12.61)"/><path class="cls-1" d="M79.21,384.06c0-1.27.59-1.93,1.5-2,.1,0,.21.05.31,0,.33-.08.65-.18,1-.28-.24-.21-.49-.42-.72-.63a8.7,8.7,0,0,1-1.17-1.14c-.13-.17-.05-.76.08-.81a1.32,1.32,0,0,1,1,0,16.7,16.7,0,0,1,1.44.86,1.48,1.48,0,0,1,.31,2.47,15.93,15.93,0,0,0-1.56,1.69c-.35.47-.65,1.13-1.3.8C79.59,384.87,79.36,384.26,79.21,384.06Z" transform="translate(-53.81 -12.61)"/><path class="cls-1" d="M91.16,181.58A4.48,4.48,0,0,1,89,184.53c-.83.22-1.55-.55-1.44-1.53.18-1.68,1.34-2.71,2.53-3.69.4-.33.82-.1.91.42S91.1,181,91.16,181.58Z" transform="translate(-53.81 -12.61)"/><path class="cls-1" d="M237.19,365.79a5.23,5.23,0,0,1-4.81-4.1,2,2,0,0,1,.29-1.38c.18-.25,1.44.47,1.63.9a7.68,7.68,0,0,0,.45,1.16,13.87,13.87,0,0,0,1.38,1.84,1.09,1.09,0,0,0,.9.32c.64-.18,1.27-.25,1.34.52S237.64,365.72,237.19,365.79Z" transform="translate(-53.81 -12.61)"/><path class="cls-1" d="M69.08,165.45c-.24.48-.37.76-.52,1s-.31.42-.42.66c-.66,1.4-.65,1.37-2.09.92a1.43,1.43,0,0,0-.94.2c-.21.11-.29.48-.5.57s-.83.28-.94.15a1,1,0,0,1,.63-1.76c1.2.06,1.73-.73,2.34-1.52a2.16,2.16,0,0,1,1.18-.85C68.18,164.8,68.62,165.22,69.08,165.45Z" transform="translate(-53.81 -12.61)"/><path class="cls-1" d="M65.46,326.43a5.9,5.9,0,0,1-.14,1.22,1.24,1.24,0,0,1-2.06.69c-.56-.41-1.33-.91-1.41-1.47-.12-.8.92-.78,1.48-1.08.27-.14.49-.4.77-.52s.73-.33,1-.21.3.57.4.9a1.31,1.31,0,0,1,0,.46Z" transform="translate(-53.81 -12.61)"/><path class="cls-1" d="M100.82,200.67a3.47,3.47,0,0,1,2.44-3.27c.93-.15,1.37.27,1,1.11-.49,1.06-1,2.21-2.18,2.69-.31.12-.76.34-.94.21S100.86,200.79,100.82,200.67Z" transform="translate(-53.81 -12.61)"/><path class="cls-1" d="M231.37,370.89c.88.58,1.6,1,2.3,1.53.07,0,.06.39,0,.4a1.35,1.35,0,0,1-.54,0c-.25,0-.51-.06-.76-.1a6.53,6.53,0,0,0,.09.86,9,9,0,0,0,.31.92,3.32,3.32,0,0,1-1.12,0,5.16,5.16,0,0,1-1.31-.81c-.51-.4-1-1-.5-1.59A7.76,7.76,0,0,1,231.37,370.89Z" transform="translate(-53.81 -12.61)"/><path class="cls-1" d="M410.06,436a12.94,12.94,0,0,1-1.24,2c-.42.49-1.73.14-2.06-.47a.72.72,0,0,1,.08-.68,17.19,17.19,0,0,1,2.23-1.69C409.59,434.88,410.06,435.21,410.06,436Z" transform="translate(-53.81 -12.61)"/><path class="cls-1" d="M82.52,395.77a1.27,1.27,0,0,1-.46-.06c-.42-.24-1-.43-1.18-.8a1.66,1.66,0,0,1,.42-1.35c.43-.47,1-.11,1.4.18a3.47,3.47,0,0,0,.41.23c.53.25,1.22.51.84,1.2-.21.39-.87.54-1.32.8Z" transform="translate(-53.81 -12.61)"/><path class="cls-1" d="M59.85,182.83c0,1-.4,1.43-1.16,1.42a1.28,1.28,0,0,1-1.13-1.42c0-.72.95-1.88,1.51-1.72C60,181.36,59.69,182.28,59.85,182.83Z" transform="translate(-53.81 -12.61)"/><path class="cls-1" d="M106.14,113.76a4.93,4.93,0,0,1-.4,1.15c-.38.63-1,.5-1.5.19a.8.8,0,0,1-.32-1.19,12.64,12.64,0,0,1,.63-1.24,5.14,5.14,0,0,1,.81-.76,6,6,0,0,1,.71.91A2.83,2.83,0,0,1,106.14,113.76Z" transform="translate(-53.81 -12.61)"/><path class="cls-1" d="M85.14,390.23c0-.87.38-1.28,1.18-1.29a1.53,1.53,0,0,1,1.41,1.36,2.22,2.22,0,0,1-1.6,1.47C85.55,391.73,85.14,391.08,85.14,390.23Z" transform="translate(-53.81 -12.61)"/><path class="cls-1" d="M104,216.43c.13.31.39.67.31.78a11.34,11.34,0,0,1-1.78,2.06c-.49.4-.92,0-1.25-.92-.2-.55-.16-.85.51-1a6.84,6.84,0,0,0,1.4-.55C103.4,216.72,103.62,216.6,104,216.43Z" transform="translate(-53.81 -12.61)"/><path class="cls-1" d="M425.24,382.55c.07-.49,0-.75.14-.89.29-.37.71-1,1-1,.6.12.65.74.34,1.25-.4.67.11.92.49,1.26s.6.72.14,1a1.11,1.11,0,0,1-1.07-.08A9.46,9.46,0,0,1,425.24,382.55Z" transform="translate(-53.81 -12.61)"/><path class="cls-1" d="M262.3,461.72c0-.68,0-1.36,0-2,0-.12.16-.23.24-.34.1.1.24.19.3.31a6.48,6.48,0,0,1,.25,4.13c0,.16-.27.28-.41.41-.13-.15-.35-.29-.36-.44,0-.68,0-1.36,0-2Z" transform="translate(-53.81 -12.61)"/><path class="cls-1" d="M72.79,288.15c-1,0-1.13-.52-1.14-1.08s.21-1.12.92-1.21,1.46.49,1.27,1A4.64,4.64,0,0,1,72.79,288.15Z" transform="translate(-53.81 -12.61)"/><path class="cls-1" d="M111.32,196.73c-.27.13-.54.28-.82.39s-.69.22-1,.32-1,.44-1.17-.18c-.08-.29.32-.79.62-1.08a2.42,2.42,0,0,1,1.07-.55C110.56,195.48,111.05,195.92,111.32,196.73Z" transform="translate(-53.81 -12.61)"/><path class="cls-1" d="M92.88,206a3.22,3.22,0,0,1-.62-.59,2.1,2.1,0,0,1-.27-.87,5.08,5.08,0,0,1,.09-1,5.66,5.66,0,0,1,.82.28,7.08,7.08,0,0,1,.9.58c.23.17.44.36.66.54a6.44,6.44,0,0,1-.67.59A8.09,8.09,0,0,1,92.88,206Z" transform="translate(-53.81 -12.61)"/><path class="cls-1" d="M310.55,325.62c.51.15.86.23,1.19.36.13,0,.31.26.29.31s-.22.36-.38.4c-.8.21-1.61.41-2.42.54a2.41,2.41,0,0,1-.84-.18c.13-.25.2-.62.41-.73A16.59,16.59,0,0,1,310.55,325.62Z" transform="translate(-53.81 -12.61)"/><path class="cls-1" d="M432.52,451.16c0,.64-1.68,1.74-2,1.49-.17-.13-.29-.67-.21-.73.57-.43,0-1.66,1-1.61C431.76,450.33,432.19,450.91,432.52,451.16Z" transform="translate(-53.81 -12.61)"/><path class="cls-1" d="M98.46,196.4c0,.58-1.6,2-2.22,1.88-.17,0-.44-.54-.39-.6A11.23,11.23,0,0,1,97.42,196,.62.62,0,0,1,98.46,196.4Z" transform="translate(-53.81 -12.61)"/><path class="cls-1" d="M309.82,334a1.21,1.21,0,0,1-1.25,1.37c-.51,0-.94-.2-.91-.82s.76-1.26,1.28-1.14A2.63,2.63,0,0,1,309.82,334Z" transform="translate(-53.81 -12.61)"/><path class="cls-1" d="M235.56,411.11a1.57,1.57,0,0,1,.34.21c1.16,1.39,2.32,2.78,3.45,4.2.1.12,0,.43-.07.65-.17-.09-.41-.14-.51-.28-1.08-1.46-2.14-2.93-3.2-4.41C235.51,411.41,235.56,411.27,235.56,411.11Z" transform="translate(-53.81 -12.61)"/><path class="cls-1" d="M92.05,209.4c.23-.77.3-1.45,1.07-1.36s.78.62.68,1.17-.44,1.14-1.11,1C92.4,210.14,92.2,209.61,92.05,209.4Z" transform="translate(-53.81 -12.61)"/><path class="cls-1" d="M343.3,468.09c-.18.4-.25.78-.38.81a1,1,0,0,1-.81-.2,1.47,1.47,0,0,1-.45-1.8,1,1,0,0,1,.6-.31C342.64,467.08,343,467.61,343.3,468.09Z" transform="translate(-53.81 -12.61)"/><path class="cls-1" d="M362.28,399.55a6.27,6.27,0,0,1-.68-1.41.85.85,0,0,1,.83-1.07c.62,0,1.08.39,1,.93S362.82,398.85,362.28,399.55Z" transform="translate(-53.81 -12.61)"/><path class="cls-1" d="M103.84,204a4.52,4.52,0,0,1,1,1c.11.24-.14.66-.22,1a7.13,7.13,0,0,1-.9-.35,1.66,1.66,0,0,1-.43-.44c-.18-.22-.34-.44-.5-.67Z" transform="translate(-53.81 -12.61)"/><path class="cls-1" d="M407.5,461.85c.11-.24.14-.5.28-.57a.55.55,0,0,1,.53.12,13.7,13.7,0,0,1,.85,1.91c0,.13-.22.51-.4.55a.71.71,0,0,1-.62-.3A17.92,17.92,0,0,1,407.5,461.85Z" transform="translate(-53.81 -12.61)"/><path class="cls-1" d="M70.05,417c.69.3,1.74.59,1.72.76-.11.87-1,.57-1.62.79s-1.29-.36-1.09-.73S69.7,417.32,70.05,417Z" transform="translate(-53.81 -12.61)"/><path class="cls-1" d="M109.67,169.94l-.58.9-.72-.64a.21.21,0,0,1,0-.15c0-.53,0-1.07.08-1.6,0,0,.49-.12.52-.06C109.2,168.87,109.41,169.38,109.67,169.94Z" transform="translate(-53.81 -12.61)"/><path class="cls-1" d="M410.27,465.26c.32.23.58.33.71.53a4.59,4.59,0,0,1,.5,1.12,11.82,11.82,0,0,1,.24,1.28c-.78.14-.91-.52-1.18-1a5.76,5.76,0,0,1-.57-1.26C409.93,465.78,410.14,465.55,410.27,465.26Z" transform="translate(-53.81 -12.61)"/><path class="cls-1" d="M67.53,91.42c-.57.52-.83.92-1.19,1-.52.19-1.06-.36-1.1-1a.62.62,0,0,1,.76-.73A7.77,7.77,0,0,1,67.53,91.42Z" transform="translate(-53.81 -12.61)"/><path class="cls-1" d="M437,454.55c.08.15.27.36.23.49-.13.41-.26.94-.57,1.15a2.14,2.14,0,0,1-1.41.27c-.42-.07-.5-.53-.12-.82s1.09-.7,1.64-1A1.05,1.05,0,0,1,437,454.55Z" transform="translate(-53.81 -12.61)"/><path class="cls-1" d="M358.48,401.71c-.34-.15-.68-.24-.67-.31a.86.86,0,0,1,.25-.63,14.49,14.49,0,0,1,1.8-.88.65.65,0,0,1,.51.16.44.44,0,0,1-.06.41C359.7,400.9,359.07,401.31,358.48,401.71Z" transform="translate(-53.81 -12.61)"/><path class="cls-1" d="M61.87,169c-.46.31-.72.58-1,.64s-.46-.23-.65-.42,0-.3,0-.46c-.08-.43-.18-.85-.27-1.27.2,0,.47,0,.59.09C60.93,168,61.33,168.45,61.87,169Z" transform="translate(-53.81 -12.61)"/><path class="cls-1" d="M402.65,448.56a2.61,2.61,0,0,1-.92-.33c-.11-.09,0-.6.13-.83a.72.72,0,0,1,1.19-.15,7.32,7.32,0,0,1,.87,1.18Z" transform="translate(-53.81 -12.61)"/><path class="cls-1" d="M356.14,467.7c-.66.46-1,.86-1.41.93-.23,0-.56-.45-.84-.71A4.45,4.45,0,0,1,355,467C355.16,466.93,355.55,467.33,356.14,467.7Z" transform="translate(-53.81 -12.61)"/><path class="cls-1" d="M64.4,271.3l-.84,1.11-1.09-.94a9,9,0,0,1,1.21-.87C63.76,270.56,64.08,271,64.4,271.3Z" transform="translate(-53.81 -12.61)"/><path class="cls-1" d="M72.8,196.45a4.41,4.41,0,0,1-1.15.53.92.92,0,0,1-.86-1.19c.07-.22.53-.54.61-.49A13.7,13.7,0,0,1,72.8,196.45Z" transform="translate(-53.81 -12.61)"/><path class="cls-1" d="M399.15,385.64c0,1-.37,1.53-.88,1.41-.21-.05-.54-.48-.49-.59a10.37,10.37,0,0,1,.86-1.36Z" transform="translate(-53.81 -12.61)"/><path class="cls-1" d="M68.78,287.15c.87,0,1.51.45,1.43,1,0,.2-.27.37-.42.55-.45-.37-.9-.74-1.32-1.13A3.48,3.48,0,0,1,68.78,287.15Z" transform="translate(-53.81 -12.61)"/><path class="cls-1" d="M60.65,316.72c.35.4.72.71.68.78a9.34,9.34,0,0,1-.89,1.11c-.21-.18-.63-.45-.59-.53A9.66,9.66,0,0,1,60.65,316.72Z" transform="translate(-53.81 -12.61)"/><path class="cls-1" d="M434.19,256.82a7.66,7.66,0,0,1-.91.71,10.18,10.18,0,0,1-.94-1.1c.26-.2.61-.62.76-.56A4.81,4.81,0,0,1,434.19,256.82Z" transform="translate(-53.81 -12.61)"/><path class="cls-1" d="M347.19,454.55c-.09-.3-.34-.66-.25-.88a5.68,5.68,0,0,1,.85-1.14c.15.29.47.62.41.87a4.76,4.76,0,0,1-.65,1.21Z" transform="translate(-53.81 -12.61)"/><path class="cls-1" d="M89.23,393c-.17.21-.24.37-.36.43a8.18,8.18,0,0,1-1.38.66c-.23.07-.53-.09-.79-.14.13-.2.22-.49.41-.6a7.78,7.78,0,0,1,1.5-.69C88.75,392.62,89,392.87,89.23,393Z" transform="translate(-53.81 -12.61)"/><path class="cls-1" d="M396.55,445.41c-.76,0-1.42-.45-1.32-.95a1.19,1.19,0,0,1,.56-.54,6,6,0,0,1,1,1C396.87,445,396.62,445.29,396.55,445.41Z" transform="translate(-53.81 -12.61)"/><path class="cls-1" d="M223.75,367.32c-.43-.62-.88-1-.81-1.2a2.33,2.33,0,0,1,.95-.84c.05,0,.55.4.52.57A7,7,0,0,1,223.75,367.32Z" transform="translate(-53.81 -12.61)"/><path d="M239.27,90.53c-.25-.48-.43-.69-.44-.89,0-.55.69-1.27,1-1.08a.69.69,0,0,1,.28.61A10.57,10.57,0,0,1,239.27,90.53Z" transform="translate(-53.81 -12.61)"/><path d="M94.51,404.45l-1.45,1.33a1.5,1.5,0,0,1-.18-.52c0-.93.52-1.63,1-1.48C94.08,403.84,94.21,404.11,94.51,404.45Z" transform="translate(-53.81 -12.61)"/><path d="M242.14,460.74c.59-2.84,1.53-5.4,3.72-7.31.59-.51,1.16-.33,1.19.44a31.89,31.89,0,0,1-.25,3.25c-.06.87-.06,1.75-.13,2.63a3,3,0,0,1-.27,1.16c-.12.22-.49.3-.75.44-.1-.22-.19-.44-.29-.66l-.31-.65a4.14,4.14,0,0,0-.73.47c-.22.21-.34.54-.56.75-.39.38-.83.71-1.24,1.05Z" transform="translate(-53.81 -12.61)"/><path d="M209.56,435.29c1.18.23,2.15.4,3.1.61.51.11.93.37.59,1s-.76,1-1.22.56c-.72-.74-1.58-.65-2.42-.82-.33-.07-.61-.41-.91-.63Z" transform="translate(-53.81 -12.61)"/><path d="M239.12,458.7c-.23.42-.36,1-.73,1.26a1.42,1.42,0,0,1-1.35-.09c-.5-.46.2-.6.46-.83a8.53,8.53,0,0,1,.79-.71.74.74,0,0,1,.55-.06C238.94,458.28,239,458.49,239.12,458.7Z" transform="translate(-53.81 -12.61)"/><path d="M204,434.06c.67.21,1.35.41,2,.67.13,0,.19.32.23.5a.52.52,0,0,1-.36.18c-.72-.25-1.44-.53-2.15-.81-.07,0-.15-.21-.13-.24A2.31,2.31,0,0,1,204,434.06Z" transform="translate(-53.81 -12.61)"/><path d="M185.1,426.09a9.22,9.22,0,0,1-1.35-.26c-.23-.08-.4-.33-.6-.51.27-.1.54-.3.8-.28a3.44,3.44,0,0,1,1.18.35c.18.08.27.35.4.53Z" transform="translate(-53.81 -12.61)"/><path d="M427.73,357.18c.73,0,1.59-.35,2.42.23.16.12.73-.25,1.05-.46s.75-.3,1,.17a6.08,6.08,0,0,1,.53.77c.17.41.48,1.05.32,1.24a2.27,2.27,0,0,1-1.51.89c-1.37-.12-2.84-.09-4-1.09a.67.67,0,0,0-1.08,0c-.34.37-.74.71-1.14.13a1,1,0,0,1,.24-1.39A2.12,2.12,0,0,1,427.73,357.18Z" transform="translate(-53.81 -12.61)"/><path d="M433.67,351.4c.56,0,1.5.06,2.43.16.2,0,.37.3.55.46-.18.14-.36.41-.54.41a2.48,2.48,0,0,0-2.38,2.12,1.93,1.93,0,0,1-.33.7c-.42.5-.94.92-1.62.55s-.49-.95-.3-1.53a13.69,13.69,0,0,0,.56-1.95C432.15,351.55,432.5,351.19,433.67,351.4Z" transform="translate(-53.81 -12.61)"/><path d="M416.1,361.22c-.27,1.12-.28,2.2-1.29,2.72a3,3,0,0,1-1.15.07,3.64,3.64,0,0,1,.16-1,18,18,0,0,1,1.09-2c.14-.22.46-.33.7-.49Z" transform="translate(-53.81 -12.61)"/><path d="M420.35,364a5.52,5.52,0,0,1-.27-.75c0-.23-.12-.63,0-.7a9.52,9.52,0,0,1,1.5-.77c.06,0,.28.15.31.26C422,362.52,421.11,363.7,420.35,364Z" transform="translate(-53.81 -12.61)"/><path d="M435.12,369c-.13-.08-.37-.15-.43-.3s0-.37.13-.53a1.19,1.19,0,0,1,.32-.33l.89-.73c.1.16.31.37.27.48a7.92,7.92,0,0,1-.66,1.29C435.57,368.93,435.34,368.91,435.12,369Z" transform="translate(-53.81 -12.61)"/><path d="M412.82,365.54c-.25.47-.45.86-.68,1.23,0,0-.37,0-.38-.09a3.48,3.48,0,0,1-.16-1.3c0-.27.45-.47.69-.7Z" transform="translate(-53.81 -12.61)"/><path d="M76.69,244.27a1.88,1.88,0,0,1,.44.38c.52.85,0,1.43-.5,2.07s-1,1.12-1.81.69c-.17-.09-.34-.55-.26-.67.52-.76,1.11-1.47,1.68-2.19A1.83,1.83,0,0,1,76.69,244.27Z" transform="translate(-53.81 -12.61)"/><path d="M80,265.06c-.14.17-.3.52-.57.63s-.54-.24-.68-.47a2.38,2.38,0,0,1-.4-1.15,2.81,2.81,0,0,1,.42-1c.33.2.77.32.95.61A4.37,4.37,0,0,1,80,265.06Z" transform="translate(-53.81 -12.61)"/><path d="M400.08,435.55a4.58,4.58,0,0,1-.29,1,6.77,6.77,0,0,1-.72.94c-.09-.32-.15-.65-.27-1s-.32-.64-.46-1-.25-.72-.38-1.09c.38-.11.81-.38,1.12-.29s.66.54.94.86C400.11,435.1,400.07,435.31,400.08,435.55Z" transform="translate(-53.81 -12.61)"/><path d="M387.4,424.36a8.23,8.23,0,0,1,1.06.4c.34.18.9.38.56.88A1.39,1.39,0,0,1,388,426a1.69,1.69,0,0,1-.94-.48c-.2-.17-.42-.56-.34-.73S387.15,424.51,387.4,424.36Z" transform="translate(-53.81 -12.61)"/><path class="cls-5" d="M218,98.25s6-6.75,15.25-2.25C233.28,96,234.28,101.5,218,98.25Z" transform="translate(-53.81 -12.61)"/><path class="cls-5" d="M251.4,96.65A9.19,9.19,0,0,1,255,93.78c2.59-1.23,6.65-1.83,12.44.87C267.4,94.65,259.15,99.65,251.4,96.65Z" transform="translate(-53.81 -12.61)"/><path d="M223.25,95.21S223,99,224.32,99.28a22.16,22.16,0,0,0,4.61-.13,7.42,7.42,0,0,0,.8-3.74C229.53,93.54,223.58,94.14,223.25,95.21Z" transform="translate(-53.81 -12.61)"/><path d="M255.58,93.61s-1,.87.27,3.81c0,0,.67,1,6.28-.6,0,0,1.74-2.6-.27-3.94C261.86,92.87,257.58,92.07,255.58,93.61Z" transform="translate(-53.81 -12.61)"/><path class="cls-1" d="M196.57,443.89c-3.16-5.16-6.32-10.33-9.5-15.47-.46-.75-1.11-1.39-1.6-2.2a4,4,0,0,1,2.71,1.74c.75,1,1.43,2.06,2.21,3,.19.24.68.27,1,.34s.91,0,1,.13a15.68,15.68,0,0,1,.86,2.07c.23.58,1.35.77.72,1.78-.14.22.13.82.36,1.13.48.65,1.12,1.18,1.59,1.83.24.33.51,1,.36,1.22-.9,1.62.14,3,.5,4.39Z" transform="translate(-53.81 -12.61)"/><path class="cls-1" d="M249,443.89a34.39,34.39,0,0,1,1.14-4c.17-.41,1-.54,1.53-.8a7.34,7.34,0,0,1,.09,1.81c-.2,1-.56,2-.86,3Z" transform="translate(-53.81 -12.61)"/><path class="cls-1" d="M279.39,286.54a31.82,31.82,0,0,1,1.22-3.28c1.14-2.3,2.45-4.52,3.59-6.82,1.06-2.13,2-4.32,2.94-6.51a2.54,2.54,0,0,0,0-1.55,7.46,7.46,0,0,1,1.42-7.18,47.51,47.51,0,0,0,3.73-5.12,4.48,4.48,0,0,0,.43-2.69,2.7,2.7,0,0,1,2.22-3.28c1.93-.32,2-.42.86-2,.58-.76,1.22-.56,1.84-.08.28.22.47.65.77.73a2,2,0,0,0,1.35-.07c.16-.09.19-.9,0-1.15-.86-1.07-.66-1.64.56-2.28a23,23,0,0,0,3.58-2.53,1.17,1.17,0,0,0,.18-1.12c-.46-.46-1-.91-.38-1.45a5,5,0,0,1,2-1.09c.41-.12,1,.34,1.42.3a1.64,1.64,0,0,0,1-.65c.09-.12-.23-.75-.5-.9a1.72,1.72,0,0,1-.93-2.17,1.5,1.5,0,0,1,.41.09c.57.33,1.4,1.09,1.66.93a2.8,2.8,0,0,0,1.53-2.81c-.17-1.07-.51-2.11-.76-3.16-.49-2.14-.37-4.14,1.35-5.78a1.23,1.23,0,0,0,.39-.83,17.42,17.42,0,0,1,.66-6.49,19.28,19.28,0,0,0,1.21-7.38c-.19-2.05,1-3,1.63-4.51a19.7,19.7,0,0,0,1.41-5.06c.3-2,1.14-2.68,3.42-2.14a7.35,7.35,0,0,0-.45.79c-.41,1-.85,1.93-1.18,2.93a21.24,21.24,0,0,0-.61,2.6c-.06.32-.1.91,0,1,1.61.64.82,1.82.39,2.57-.69,1.21-.59,2.85-2,3.71-.24.15-.25.74-.31,1.14-.14,1-.19,2.06-.36,3.08-.44,2.64-.84,5.28-1.43,7.89a11.9,11.9,0,0,1-1.32,2.31,4,4,0,0,0-.27,1.36c-.05.51,0,1-.05,1.55-.09,1.37-.22,2.74-.27,4.11,0,1.1-.48,2.35.92,3.07.12.06,0,.67-.06,1.15.21-.1.43-.12.48-.23,1.15-2.53,2.33-5.06,3.41-7.62.68-1.62,1.25-3.28,1.81-4.95.27-.81.4-1.66.62-2.49s.48-1.52.72-2.29.46-1.53.68-2.3c.27-.95.61-1.88.8-2.85.8-4.2,1.56-8.42,2.34-12.62.21-1.11.49-2.21.66-3.33s.31-2.5.49-4.06c.19,0,.79-.12,1.37-.26.75-.18,1.24-.42,1.14-1.46a3.14,3.14,0,0,1,1-2c.14-.16,1.07.37,1.63.61.75.32,1.49.63,2.22,1,.5.25,1,.57,1.51.9-.72,1-1.42,1.22-2.21.41a1.49,1.49,0,0,0-2.06-.36c-.79.53-.37,1.14-.06,1.78a1.35,1.35,0,0,1,0,1.12c-1.43,2.07-1.33,4.5-1.72,6.82-.44,2.57-1.1,5.1-1.64,7.65-.48,2.3-.81,4.63-1.42,6.89-.7,2.55-1.72,5-2.45,7.56-.42,1.47-.5,3-.83,4.53s-.85,3-1.22,4.58-.58,2.87-.9,4.49a2,2,0,0,0,2-1.84,7.22,7.22,0,0,1,1.58-3.67c.54-.66.49-1.78.76-2.68s.55-1.7.86-2.53c.85-2.27,1.65-4.56,2.59-6.8,1-2.48,1.49-5.21,3.27-7.38a11.24,11.24,0,0,0,2.61-7.12,5.53,5.53,0,0,1,1.07-2.32,5.45,5.45,0,0,1,1-.94,4.12,4.12,0,0,0,1.23-4.85c.76-.36,1.47-.76,2.22-1s1.38-.06,1.33,1c-.2,3.92-.45,7.84-.52,11.76,0,1.61.45,3.22.52,4.83s-.07,3.15-.1,4.73c-.06,3.1-.1,6.2-.17,9.3a4.69,4.69,0,0,1-.26,1.72,6.58,6.58,0,0,0-.36,4.25,6.58,6.58,0,0,1-.05,1.59c0,.64,0,1.29,0,1.93,0,.13.13.26.12.38-.18,3.62,1.52,7,1.5,10.57a17.43,17.43,0,0,1-.64,3,2.79,2.79,0,0,0,0,1.57,1.06,1.06,0,0,1-.45,1.59,1.13,1.13,0,0,1-1.76-.31,5.4,5.4,0,0,1-.94-4.38,19.93,19.93,0,0,0,.5-2.39,2.25,2.25,0,0,0-.24-1.13c-.39-.88-.91-1.71-1.26-2.61a18.68,18.68,0,0,1-1.37-7.52c0-1.42-.65-2.86-.56-4.27.18-2.91.68-5.8,1-8.71.28-2.5.49-5,.74-7.51.13-1.3.3-2.59.37-3.89,0-.33-.3-.68-.46-1-.39.19-1,.28-1.13.58-1.26,2.24-2.77,4.42-3.52,6.83-.56,1.8-.13,3.92-.12,5.9,0,2.88-.16,5.78.11,8.63.32,3.38-.35,6.79.74,10.18.9,2.82,1,5.87,1.73,8.76,1,3.85,2,7.68,3.27,11.45a63.19,63.19,0,0,0,2.87,6.53c.53,1.15,1.39,1.34,2.55.84a4.49,4.49,0,0,1,1.56-.07,4.38,4.38,0,0,1-.75,1.26,2.1,2.1,0,0,0-.79,2.64c1.33,3,2.7,6,4.11,9,.15.31.58.49.89.72a5.86,5.86,0,0,0,.53-1c.59-1.88,1.13-3.77,1.74-5.65a20.56,20.56,0,0,1,1-2.33c.25-.53.56-1,.85-1.56l.4.15a7,7,0,0,1-.21,1.37,19.38,19.38,0,0,0-.79,8.19c.22,2.77-1,3.7-3.48,2.45-1.77-.9-3.43-2-5.16-3a3.35,3.35,0,0,0-1.38-.52c-6.4-.34-11.72-3.51-17-6.57-1.64-.94-2.84-2.63-4.31-3.89-1-.82-2.06-1.48-3.06-2.25s-1.53-.43-2,.48c-1.93,4-3.83,8-5.77,12-.33.69-.79,1.31-1.16,2s-.64,1.27-1,1.9l-4.29,8.33-.55-.21,1-5.55-.39-.16a12.8,12.8,0,0,0-1.1,1.88c-.48,1.26-.71,2.62-1.28,3.84-1.56,3.35-3.22,6.65-4.89,10-.91,1.8-1.84,3.61-2.92,5.32-1.18,1.87-2.54,3.61-3.82,5.42q-.47.66-.9,1.35c-1.83,2.94-3.62,5.9-5.49,8.81-.65,1-.64,1.63.48,2.31a2.13,2.13,0,0,1,.85,1.71c-.72,5.1-1.57,10.17-2.35,15.26a36.31,36.31,0,0,1-.6,4.42,18.06,18.06,0,0,1-1.75,3.41c-.08.15-.33.24-.36.39-.73,3-4,2.64-5.72,4.23-.1.09-.87-.27-.93-.51a4,4,0,0,1,.08-1.59,1.79,1.79,0,0,0-.84-2,14.62,14.62,0,0,1-1.9-1.87,21.52,21.52,0,0,1-1.89-2.06,7.27,7.27,0,0,1-.86-1.84c-.28-.77-.49-1.58-.73-2.37a8.64,8.64,0,0,1-.77-2.83c.14-1.76-.32-3.61.76-5.28.47-.72-.54-1.9-1.39-1.54-2.67,1.09-4.48-.61-6.5-1.72a15.5,15.5,0,0,0-3.24-1.63,3,3,0,0,0-3.69,3.38,4.72,4.72,0,0,1-2.23,4.09c-.23.11-.78.09-.84,0a2.36,2.36,0,0,1-.32-1.37,2.46,2.46,0,0,0-.84-2.68c-1.29-1-2.67-2-3.91-3a2.26,2.26,0,0,1-.66-1.6c.06-1.32.65-1.65,1.91-1.16a8,8,0,0,0,7.5-.94c1.43-.9,2.73-2,4.13-3a43.84,43.84,0,0,0,4.56-3.06c2.48-2.22,4.77-4.65,7.13-7,1.12-1.11,2.25-2.21,3.32-3.36,2.45-2.65,5-5.24,7.26-8a56.46,56.46,0,0,0,3.43-5.31c.94-1.44,2-2.8,2.87-4.27,2-3.37,3.9-6.78,5.84-10.18.83-1.45,1.71-2.87,2.45-4.37.48-1,.73-2,1.12-3,.86-2.18,1.77-4.34,2.62-6.53.69-1.76,1.26-3.57,2-5.31.55-1.28,1.38-2.45,1.93-3.73a7.29,7.29,0,0,0,.34-2.19,15.73,15.73,0,0,0,0-1.62,24.54,24.54,0,0,1,0-2.63A17.65,17.65,0,0,1,300,254c.23-1,.41-2,.64-3.15-3,.36-4.71.61-5.14,4.24a19.78,19.78,0,0,1-4.29,10.37,24.58,24.58,0,0,0-3.84,7.55,71.78,71.78,0,0,1-4.64,9.32c-.81,1.53-1.8,3-2.71,4.46ZM324,243.94l.28-.07c-.2-.31-.34-.82-.61-.89a1.1,1.1,0,0,0-1,.42,19.85,19.85,0,0,0-1.23,3.37c-.1.39.34.9.54,1.36.57-.34,1.48-.56,1.64-1A13.93,13.93,0,0,0,324,243.94Zm-53.53,99.6-.55-.12a21.08,21.08,0,0,0-.8,2.06c-.06.21.22.51.35.77.24-.15.65-.26.7-.46A22.75,22.75,0,0,0,270.42,343.53Zm1.22-11.43-.31-.56-2,1,.36.65Zm47.07-89.17.54.08.2-1.28-.55-.08Z" transform="translate(-53.81 -12.61)"/><path class="cls-1" d="M178.63,180.1a32.94,32.94,0,0,1-3,11c-1.62,3.69-3.81,7.12-5.6,10.74a21.5,21.5,0,0,0-1.17,4.14c-.33,1.26-.65,2.52-.93,3.79-.47,2.2-.81,4.44-1.38,6.62s-.11,3.57,1.92,4.6a2,2,0,0,1,.54,1.82,9.09,9.09,0,0,0,.49,6.11,36.93,36.93,0,0,1,1.88,5.05c.46,2.17-.77,4-1.92,5.76a48.2,48.2,0,0,1-3.32,4.1,1.59,1.59,0,0,1-.73.58c-1,.22-1.6.58-.94,1.73s1.43,1.54,2.53.84c2.24-1.42,4.44-2.92,6.65-4.39.9-.6,1.76-1.27,2.68-1.83a1,1,0,0,1,1,.11,1,1,0,0,1,.21,1c-1.09,2-2.15,4.06-3.41,6-1.39,2.12-3.77,2.87-6,3.74a4.4,4.4,0,0,0-2.76,2.6,1.63,1.63,0,0,0,.9,2.36c1.46.53,3,.79,4.5,1.28a5.64,5.64,0,0,1,1.83,1.1c.62.54.3,1-.38,1.12a8,8,0,0,1-2.13-.17c-1.46-.24-2.12.2-2.39,1.65s-.52,2.85-.88,4.25c-.45,1.75-1.06,1.95-2.85,1.76a3.94,3.94,0,0,0-2.7.69,2.85,2.85,0,0,0-.63,3.27c.35.93.78,1.83,1.14,2.76a6.55,6.55,0,0,1,0,4.91c-1.18,3-.87,5.93-.46,8.95a18.43,18.43,0,0,1,.15,3.64c-.07,1.17-.44,1.14-1.44.62-2.91-1.54-3-4.56-3.87-7.13-.1-.29,0-.68-.15-.93a17.37,17.37,0,0,0-1.2-1.52c-.49.4-1.31.73-1.4,1.21a56.17,56.17,0,0,0-1.27,8.25,48.6,48.6,0,0,0,.63,7,7,7,0,0,1,.12,1.61,1.29,1.29,0,0,1-.65.91,1.11,1.11,0,0,1-1-.32c-1-2.15-3-2.38-5-2.65a2.92,2.92,0,0,1-2.8-2.66c-.5-2.54-2.58-3.66-4.41-5a13.46,13.46,0,0,1-2.07-2,18.16,18.16,0,0,0-1.5-2.07c-1.17-1-1.4-1.86-.51-3.24,1.29-2,2.32-4.18,3.49-6.26.47-.84,1.19-1.2,2-.48a2,2,0,0,0,3.08-.33c1.23-1.48,2.54-2.36,4.56-2,.35.07,1-.43,1.23-.83A3.48,3.48,0,0,1,152,272c2.35-.35,3.26-1.78,3.14-4.22-.11-2.25.1-4.52.06-6.78-.08-4.55-.23-9.1-.34-13.66a4.31,4.31,0,0,1,1.36-3.56c2.05-1.77,2.38-4.06,2.47-6.6a25,25,0,0,1,1-5.68c.42-1.53,1.25-1.52,2.45-.51a4.16,4.16,0,0,0,2.44.75,1.13,1.13,0,0,0,1.12-1.61,10.51,10.51,0,0,0-1.29-3.11,13.53,13.53,0,0,1-2.3-8.31c0-3.93,0-7.86.23-11.78.14-2.27.78-4.51,1.15-6.78.46-2.84.69-5.73,1.36-8.51.78-3.21.49-6.47.9-9.67a70.45,70.45,0,0,1,2-8.75c.27-1.05,2.3-2,3.35-1.72s1.08,1,.92,1.84c-.33,1.68-.71,3.35-1.12,5a2.11,2.11,0,0,1-.6,1c-1.06.93-.49,1.77.21,2.42a1.37,1.37,0,0,0,2.22-.37c.91-1.58,1.6-3.29,2.38-4.94.17-.37.23-.85.5-1.09a2.25,2.25,0,0,1,1.36-.67c.3,0,.74.61.84,1C178.14,177.21,178.36,178.66,178.63,180.1ZM163.9,241.78c2-1.12,2.54-4.43,1.33-6.75C163.84,237,163.88,239.28,163.9,241.78Z" transform="translate(-53.81 -12.61)"/><path class="cls-1" d="M263.68,179.81a35.41,35.41,0,0,0-3.73.88c-1.74.6-3.39,1.44-5.12,2.06a36.3,36.3,0,0,1-5.81,1.8,26,26,0,0,1-5,0,8.23,8.23,0,0,0-1.35-.09c-3.33.51-6.48-.94-9.77-.85a3.12,3.12,0,0,1-1.32-.29,18.15,18.15,0,0,0-5.22-1c-2.21-.3-4.29-1.62-6.4-2.54-.24-.1-.55-.64-.48-.75a16.91,16.91,0,0,1,2.4-3.4c.44-.42.8.33.66,1a2.78,2.78,0,0,0,.18,1c.28-.22.7-.39.82-.68a1.51,1.51,0,0,1,2.28-.87,21.39,21.39,0,0,0,8.93,1.71c2.71-.07,5.41-.32,8.11-.32a49.79,49.79,0,0,0,13.2-2.16,63.66,63.66,0,0,0,16.83-7.65,36.6,36.6,0,0,1,6.93-3c1.52-.55,2.49.56,2.07,2.18a1.5,1.5,0,0,0,.74,1.93,4.5,4.5,0,0,1,1.24,1.5c.3.49.42,1.1.72,1.6.16.27.63.63.79.56a1.41,1.41,0,0,0,.7-.84c.14-.51,0-1.08.15-1.61a1.56,1.56,0,0,1,.48-.87c.09-.08.6.17.76.39,1.52,2.11,3.43,4,4,6.65.06.26.09.64.27.75.53.34,1.19.87,1.68.76s.91-1,.91-1.5c0-1.7.26-1.91,1.83-1.18a4.6,4.6,0,0,1,.85.42c.43.33.82.72,1.22,1.08a6,6,0,0,0-1,1.09c-.22.4-.47,1.16-.3,1.33,1.57,1.51,1.68,3.71,2.7,5.46.07.11.16.34.12.37-1.24,1,0,2.55-.78,3.72a1.89,1.89,0,0,0,.1,1.72,2,2,0,0,1-.11,2.83,18.63,18.63,0,0,0-3.52,8c-.23,1.09-.33,2.2-.54,3.29a3,3,0,0,1-.79,1.57,3,3,0,0,1-.26-.8c-.06-2.39-.09-4.77-.14-7.16,0-.4-.12-.8-.14-1.21-.09-1.28-.12-2.57-.25-3.85-.09-.92-.34-1.82-.46-2.74a5.47,5.47,0,0,1,0-1.43c.17-1.25.44-2.5.53-3.75,0-.39-.38-.82-.59-1.23-.32.25-.75.44-.94.77-.91,1.55-1.58,1.6-2.66.16-.17-.23-.56-.58-.67-.52a1.28,1.28,0,0,0-.66.74c-.36,1.7-.65,3.41-1,5.11-.11.6-.27,1.18-.41,1.78-.46-.23-1.13-.34-1.34-.7a4.14,4.14,0,0,1-.23-3.5,7.5,7.5,0,0,0-1.41.7c-1,.81-2,1.74-3,2.51a2.72,2.72,0,0,1-1.64.48,1.68,1.68,0,0,1-1.27-.74,1.53,1.53,0,0,1,.3-1.43,4.06,4.06,0,0,0,1.62-3.26c0-.5.55-1,.65-1.46a2.73,2.73,0,0,0,0-1.8,1.44,1.44,0,0,0-2.12-.5c-1.2.86-2.42,1.72-3.53,2.69-.9.78-1.64,1.66-2.81.4a1.12,1.12,0,0,0-1-.17,22.82,22.82,0,0,0-3.61,1.8c-2,1.38-4,2.87-6,4.4-3.09,2.44-6.41,4.66-8.37,8.27a2.51,2.51,0,0,1-1.36,1,1.55,1.55,0,0,1-1.36-.22,1.48,1.48,0,0,1,0-1.34c1.27-2.24,2.5-4.51,4-6.62,2.11-3,4.36-6,6.65-8.89A18.77,18.77,0,0,1,263.2,181a9.32,9.32,0,0,0,.69-.75Zm2.48,3.6,6.89-7C270.5,176.74,266.43,180.93,266.16,183.41Zm24.52-2.72a4,4,0,0,0-.92.84,1,1,0,0,0,.21.92,3.59,3.59,0,0,0,1.39.06,7.23,7.23,0,0,0,1.62-.26,4.5,4.5,0,0,0,1-.65c-.24-.2-.45-.52-.72-.57C292.53,180.88,291.77,180.83,290.68,180.7Zm-9.31-1.39-.53-.56L279.56,180l.49.5Z" transform="translate(-53.81 -12.61)"/><path class="cls-1" d="M194.74,184.73c-.28-3.16-.57-6.13-.78-9.12-.06-.84.23-1.7.21-2.55a3.54,3.54,0,0,0-.53-1.21,4.71,4.71,0,0,0-1.14.75,1.2,1.2,0,0,0-.18,1c.84,2-.21,3.78-.7,5.63-.23.87-.22,1.81-.52,2.64-.62,1.67-1,3.61-2.16,4.87-1.77,2-2.16,4.31-2.85,6.63-.24.79-.49,1.58-.79,2.53a10.45,10.45,0,0,1-3-5.89,43.3,43.3,0,0,1-1-11,5.42,5.42,0,0,0-.47-2.08c-.44-1.23-1-2.4-1.4-3.64a1.78,1.78,0,0,1,.44-1.55c1.74-1.36,3.23-3.29,5.88-2.82a1.29,1.29,0,0,0,1-.48c1.52-2.25,3.88-3,6.32-3.5s4.82-.71,7.24-1c1.13-.14,1.82.21,1.75,1.55-.1,2.12-.09,4.24-.14,6.36a1.64,1.64,0,0,1-.14.8,10.64,10.64,0,0,0-1.29,4.91c0,.4-.41.78-.64,1.16a36.23,36.23,0,0,0-2.05,3.33A4.54,4.54,0,0,1,194.74,184.73Z" transform="translate(-53.81 -12.61)"/><path class="cls-1" d="M150.69,191.25c-.55,1.16-1.08,2.21-1.55,3.3-.89,2.06-1.75,4.13-2.61,6.2-.43,1-.92,2-1.25,3.09-.48,1.57-.87,3.17-1.24,4.78a19,19,0,0,0-.19,2.12c0,.45-.18.89-.21,1.34-.16,2.18-.18,4.38-.48,6.55-.33,2.41-1,4.77-1.3,7.19-.1.92.62,1.91.84,2.89a3.82,3.82,0,0,1,0,1.7c-.32,1.31-.8,2.57-1.07,3.89a1.83,1.83,0,0,0,.45,1.32c.46.56,1.3,1.12.61,1.79a3.68,3.68,0,0,1-2.44,1c-.49,0-1.45-1.28-1.31-1.71.75-2.38-.06-4.67-.11-7a13.74,13.74,0,0,1,.47-2.1c.13-.87.1-1.77.23-2.64.18-1.19.53-2.35.65-3.54a10.74,10.74,0,0,0-.18-2.27,6,6,0,0,1-.18-1.2c.4-3.85.63-7.74,1.31-11.54a29.11,29.11,0,0,1,3.78-9.8c1.07-1.78,2-3.62,3-5.44.11-.2.15-.47.31-.6.47-.37,1-.69,1.49-1Z" transform="translate(-53.81 -12.61)"/><path class="cls-1" d="M356.55,222.55a4.57,4.57,0,0,1-1.1,1.37c-.25.15-1-.3-1.39-.65-3.5-3.48-5.06-8.07-7-12.43-1.12-2.52-2.13-5.09-3.15-7.65-.43-1.09-.77-2.21-1.12-3.32s-.72-2.42-1.09-3.62c-.12-.39-.45-.78-.41-1.13a11.51,11.51,0,0,1,.55-1.94,6.81,6.81,0,0,1,1.25,1,42.82,42.82,0,0,1,5.56,9.59c1.08,2.57,2.36,5.06,3.55,7.59a3.19,3.19,0,0,0,.19.36c1,1.52,2.36,2.69,2.42,4.82.05,1.63,1,3.24,1.51,4.86C356.4,221.65,356.43,221.93,356.55,222.55Z" transform="translate(-53.81 -12.61)"/><path class="cls-1" d="M277.36,374.67c-.24.46-.47.93-.72,1.38a4.46,4.46,0,0,0,.08,5.1c.74,1.07,1.48,2.15,2.24,3.22s.63,2-.82,2.16c-2.54.23-5,1.38-7.61.89-1.12-.2-1.61-.47-1.46-1.69.09-.72-.27-1.5-.22-2.23.1-1.42.37-2.83.54-4.25a44.93,44.93,0,0,0,.51-5.07,3.37,3.37,0,0,0-1-2,3.49,3.49,0,0,1-.78-4c.21-.34.77-.47,1.17-.7a5.07,5.07,0,0,1,.29,1c.07,1,0,2,.88,2.71.31.26.33,1,.34,1.49,0,1.08.08,2.17,1.16,2.7a2.74,2.74,0,0,0,3.06-.24,9.38,9.38,0,0,1,2-.89Z" transform="translate(-53.81 -12.61)"/><path class="cls-1" d="M304.84,351.47a6.75,6.75,0,0,1-1.54.61c-1.79.12-3.6.11-5.39.27a4.17,4.17,0,0,0-2.32.69c-1.56,1.43-3.48,1.71-5.39,1.9-2.23.23-4.5.16-6.74.32-2.82.2-3.13-.08-2.57-2.85a24.39,24.39,0,0,1,.86-3.13c.27-.79.81-.87,1.63-.6a9.73,9.73,0,0,0,3,.48c3.81,0,7.6-.49,11.42.67,1.81.54,3.67,1.79,5.8,1.06C303.81,350.82,304.16,351.15,304.84,351.47Z" transform="translate(-53.81 -12.61)"/><path class="cls-1" d="M250.85,312.18c-.24.39-.34.59-.48.77a34.32,34.32,0,0,1-8.46,7.91,19.68,19.68,0,0,1-3.9,1.84c-1.36.48-2.3,1.09-2.36,2.71-.05,1.29-.65,1.51-1.63.65a33.56,33.56,0,0,1-2.78-2.75c-.55-.61-.45-1.18.36-1.63,3.47-1.92,6.92-3.88,10.37-5.83,2-1.15,4.07-2.33,6.12-3.46a5.9,5.9,0,0,1,1.78-.61C250.13,311.72,250.47,312,250.85,312.18Z" transform="translate(-53.81 -12.61)"/><path class="cls-1" d="M186.85,320c-1.91.4-2,.33-3.7-1.51a24.63,24.63,0,0,1-2.68,0,13.61,13.61,0,0,0-6.67.7,57,57,0,0,1-5.71,1.7c-.8.22-1.69.32-1.85-.9s.5-1.34,1.47-1.43a16.51,16.51,0,0,0,6.94-2.5c4.5-2.62,6.5-2.33,10.21,1.36A23.41,23.41,0,0,1,186.85,320Z" transform="translate(-53.81 -12.61)"/><path class="cls-1" d="M126.81,264.13c1.65-1.48,2.45-3.78,5.14-3.67-.47-3.41,2.42-4.84,4-7,.49-.65,1.13-.41,1.44.37a1.84,1.84,0,0,1-1.21,2.65c-1,.33-1.46,1-1.14,1.95.73,2.18.21,3.61-2,4.6a7.24,7.24,0,0,0-2.41,2.39c-1.07,1.41-1.51,1.51-2.71.2C127.56,265.18,127.24,264.69,126.81,264.13Z" transform="translate(-53.81 -12.61)"/><path class="cls-1" d="M378,411.93a27,27,0,0,1,2.9,2.5c1.4,1.58,2.67,3.29,3.94,5a1.66,1.66,0,0,1,.23,1.2c0,.19-.56.36-.88.41-.91.14-1.84.12-2.73.32s-1.52.28-2-.55a14.29,14.29,0,0,1-1.88-8.57Z" transform="translate(-53.81 -12.61)"/><path class="cls-1" d="M357.2,436.2c-2-.33-3.95-.62-5.9-1-.35-.07-.89-.65-.85-.91.38-2.37-.27-4.8,1-7.15.89-1.73,2.45-2,3.81-3.13a3.72,3.72,0,0,1-1.15,3.81c-1.86,1.62-1.19,5.21,1,6.36a22.12,22.12,0,0,1,2.43,1.7Z" transform="translate(-53.81 -12.61)"/><path class="cls-1" d="M191.13,311.93c1.35.08,2.7.25,4,.22a40.27,40.27,0,0,0,5.08-.46c.55-.09,1-.75,1.55-1a4,4,0,0,1,1.74-.32c.18,0,.57.77.46,1-.31.55-.74,1.25-1.27,1.41-2.27.65-4.59,1.16-6.91,1.64a5.57,5.57,0,0,1-1.58-.25c-1.21-.14-2.43-.17-3.62-.4-.61-.12-1.64-.55-1.64-.85,0-1,1-.93,1.73-1,.13,0,.27,0,.41,0Z" transform="translate(-53.81 -12.61)"/><path class="cls-1" d="M187.92,210.32c.25.18.76.46.73.55-.13.38-.44,1-.66,1-2.23-.12-2.9,1.68-3.91,3.06s-2.1,2.82-3.19,4.2c-.21.26-.62.35-.94.53-.09-.37-.36-.82-.23-1.09.56-1.22.52-2.76,2.07-3.48.52-.24.76-1.07,1.12-1.64C184,211.63,185.83,210.88,187.92,210.32Z" transform="translate(-53.81 -12.61)"/><path class="cls-1" d="M218.94,337.6c-1.29-.66-2.34-2.36-3.16-5.07a31.11,31.11,0,0,1,3-.76,2,2,0,0,1,1.53.33,1.88,1.88,0,0,1,.17,1.57C220.1,335,219.5,336.23,218.94,337.6Z" transform="translate(-53.81 -12.61)"/><path class="cls-1" d="M112.39,221.9c-.1.09-.18.22-.29.26-3.36,1-6.62,2.46-10.24,2.19a5.85,5.85,0,0,1-1.81-.45c-.26-.11-.59-.57-.54-.79a1.08,1.08,0,0,1,.77-.62,6.38,6.38,0,0,1,2,0,10.91,10.91,0,0,0,6.89-.49,12.85,12.85,0,0,1,3.14-.61Z" transform="translate(-53.81 -12.61)"/><path class="cls-1" d="M204.68,181.39c-.05-.93-.15-1.86-.14-2.79,0-.29.3-.58.46-.87.25.21.6.38.72.65.74,1.7,1.5,3.39,2.1,5.14.16.47-.08,1.5-.38,1.6a1.88,1.88,0,0,1-1.73-.35,20.54,20.54,0,0,1-1.41-3.28Z" transform="translate(-53.81 -12.61)"/><path class="cls-1" d="M312.14,401.13A7.55,7.55,0,0,0,313.3,400a3.72,3.72,0,0,1,4.89-1.63c.92.34,2.18-.37,3.07,1a3.52,3.52,0,0,1-1,.44,11.4,11.4,0,0,1-2.3,0,2,2,0,0,0-2.25,1c-.88,1.46-2.27.14-3.35.7Z" transform="translate(-53.81 -12.61)"/><path class="cls-1" d="M222.17,331.25c.31-.48.43-.9.68-1,1-.47,2.12-.86,3.19-1.26,0,0,.2.1.2.15a8.27,8.27,0,0,1-.23,2.36,2,2,0,0,1-2.51,1.3C223,332.63,222.64,331.82,222.17,331.25Z" transform="translate(-53.81 -12.61)"/><path class="cls-1" d="M147.12,258.61l1.3.45,1.41-2.39c.87,1.55.68,2.39-.58,3.38-.59.46-1.06,1.09-1.63,1.59a4.23,4.23,0,0,1-1,.48c-.11-.36-.38-.76-.31-1.08A22.61,22.61,0,0,1,147.12,258.61Z" transform="translate(-53.81 -12.61)"/><path class="cls-1" d="M285.19,397.56a14.93,14.93,0,0,1,2.12.62,1.2,1.2,0,0,1,.54.94,1,1,0,0,1-.73.62c-1.37-.12-2.73-.34-4.08-.6,0,0-.07-1,.11-1.07A10.81,10.81,0,0,1,285.19,397.56Z" transform="translate(-53.81 -12.61)"/><path class="cls-1" d="M261.74,430c1.7,1.12,2,6.06.43,8.3Z" transform="translate(-53.81 -12.61)"/><path class="cls-1" d="M248.78,403c.35,2.17.18,2.38-1.66,1.88-.68-.19-1.94.18-1.83-1s1.31-.73,2.09-.82A12,12,0,0,1,248.78,403Z" transform="translate(-53.81 -12.61)"/><path class="cls-1" d="M255.83,425.87c-.95-.5-1.77-.69-2.13-1.2s1.58-1.57,2.72-1.48a1.39,1.39,0,0,1,.76.64C256.8,424.49,256.34,425.11,255.83,425.87Z" transform="translate(-53.81 -12.61)"/><path class="cls-1" d="M236.64,226.7c.54-2.06.23-4,2.09-5.13C239.7,222.91,239.28,224,236.64,226.7Z" transform="translate(-53.81 -12.61)"/><path class="cls-1" d="M139.17,243.82l.66-4.42.51-.15c.32.65.9,1.29.92,1.95C141.28,242.41,140.4,243.17,139.17,243.82Z" transform="translate(-53.81 -12.61)"/><path class="cls-1" d="M135.52,378.22a37.63,37.63,0,0,1-3.83.32c-.36,0-.72-.62-1.08-1a3.68,3.68,0,0,1,1.15-.41,20.1,20.1,0,0,1,2.7.22,6,6,0,0,1,1.16.4Z" transform="translate(-53.81 -12.61)"/><path class="cls-1" d="M137.81,273.48c1.16-.15,3.18.93,3.27,1.57a.92.92,0,0,1-.34.77c-.27.15-.81.23-1,.07C139.11,275.19,138.53,274.39,137.81,273.48Z" transform="translate(-53.81 -12.61)"/><path class="cls-1" d="M306.77,198.37a7.85,7.85,0,0,1-.42,1.87c-.15.31-.73.41-1.12.61,0-.35.07-.7.12-1.05.09-.57.23-1.13.27-1.7s0-1,0-1.52a.89.89,0,0,1,.46-.09c.26.49.49,1,.72,1.52A1.22,1.22,0,0,1,306.77,198.37Z" transform="translate(-53.81 -12.61)"/><path class="cls-1" d="M69.45,332.61c-1.55-.49-2.27-3-1.78-5.65Z" transform="translate(-53.81 -12.61)"/><path class="cls-1" d="M75.75,356.9c-1.2-.22-2.71-1.92-2.57-2.82,0-.18.69-.47.78-.39A5.42,5.42,0,0,1,75.75,356.9Z" transform="translate(-53.81 -12.61)"/><path class="cls-1" d="M73.15,343.35V347c-1.33-.7-1.43-1.77-.4-3.59Z" transform="translate(-53.81 -12.61)"/><path class="cls-1" d="M81.9,369.39a4.35,4.35,0,0,1-2-3.7l.38-.21,2,3.7Z" transform="translate(-53.81 -12.61)"/><path class="cls-1" d="M134.31,267.67c-.53.64-1,1.3-1.62,1.9-.1.1-.65,0-.67-.1-.07-.36-.17-.92,0-1.08a12.75,12.75,0,0,1,1.84-1.17Z" transform="translate(-53.81 -12.61)"/><path class="cls-1" d="M145.16,350.21l1.14.92c-.4.26-.81.75-1.2.73s-.79-.52-1.18-.81Z" transform="translate(-53.81 -12.61)"/><path class="cls-1" d="M218.3,179c-.32.07-.5.16-.57.11-.61-.43-1.21-.89-1.81-1.35.18-.16.39-.48.53-.45A2,2,0,0,1,218.3,179Z" transform="translate(-53.81 -12.61)"/><path class="cls-1" d="M121.79,219.72l-3.12.6-.14-.68,3.09-.73Z" transform="translate(-53.81 -12.61)"/><path class="cls-1" d="M383.66,423.65l-.09,2c-.33-.12-.84-.13-1-.36C382.16,424.52,382.51,424,383.66,423.65Z" transform="translate(-53.81 -12.61)"/><path class="cls-1" d="M350.87,365.46c.62,1-.2,1.85-.35,2.77l-.56-.05.27-2.76Z" transform="translate(-53.81 -12.61)"/><path class="cls-1" d="M283.73,264.83l1.79-.52.2.9-1.8.39Z" transform="translate(-53.81 -12.61)"/><path class="cls-1" d="M190.32,208.31a4.66,4.66,0,0,1-.92,1.12,2.28,2.28,0,0,1-1.24.16c-.1,0-.29-.51-.27-.52a5.7,5.7,0,0,1,1-.54c.4-.17.82-.29,1.23-.43Z" transform="translate(-53.81 -12.61)"/><path class="cls-1" d="M163.54,391.12a3,3,0,0,1,.45,0c.29.68.57,1.35.85,2a3.68,3.68,0,0,1-.56.13C164,392.56,163.8,391.87,163.54,391.12Z" transform="translate(-53.81 -12.61)"/><path class="cls-1" d="M357.21,401.39l-2.88.22,0-.6h2.86Z" transform="translate(-53.81 -12.61)"/><path class="cls-1" d="M207.5,271.74c-.5.31-.78.6-.93.55a5,5,0,0,1-1-.66c.19-.18.42-.55.58-.52A6.85,6.85,0,0,1,207.5,271.74Z" transform="translate(-53.81 -12.61)"/><path class="cls-1" d="M289.47,186.26c.29.46.56.72.58,1s-.46.56-.55.52a1.22,1.22,0,0,1-.62-.67C288.83,186.94,289.16,186.68,289.47,186.26Z" transform="translate(-53.81 -12.61)"/><path class="cls-1" d="M163.05,388.39l-.54-1.63.51-.19c.84.27.82.91.55,1.65Z" transform="translate(-53.81 -12.61)"/><path class="cls-1" d="M181,420.91l1.43,1.59-.44.4-1.43-1.55Z" transform="translate(-53.81 -12.61)"/><path class="cls-1" d="M91.57,390l-.09,1.82H91V390Z" transform="translate(-53.81 -12.61)"/><path class="cls-1" d="M238.7,340.78l2.18-.19.06.45-2.16.32Z" transform="translate(-53.81 -12.61)"/><path class="cls-1" d="M257.89,343.24l-1.55-1.2.32-.44,1.62,1.16Z" transform="translate(-53.81 -12.61)"/><path class="cls-1" d="M147.89,244.49l-.65.71c-.18-.21-.5-.43-.5-.64s.33-.43.51-.65Z" transform="translate(-53.81 -12.61)"/><path class="cls-1" d="M79.08,364.24l-.59-1.84.5-.18.65,1.83Z" transform="translate(-53.81 -12.61)"/><path class="cls-1" d="M233,334.44c-.33.28-.57.59-.66.55a3.62,3.62,0,0,1-.77-.57c.15-.18.34-.53.44-.51A4.49,4.49,0,0,1,233,334.44Z" transform="translate(-53.81 -12.61)"/><path class="cls-1" d="M168.49,314l-1.35.14-.06-.57,1.35-.15Z" transform="translate(-53.81 -12.61)"/><path class="cls-1" d="M148.32,350.34l1.53-.62.23.61-1.57.51Z" transform="translate(-53.81 -12.61)"/><path class="cls-1" d="M299.74,253.36c-.33.15-.57.34-.8.33s-.34-.28-.51-.43a4.35,4.35,0,0,1,.6-.57A5.55,5.55,0,0,1,299.74,253.36Z" transform="translate(-53.81 -12.61)"/><path class="cls-1" d="M262.83,391.25c1.18.39,2.18.66,3.12,1.06.28.12.42.62.54,1,0,.11-.32.48-.35.46a2.3,2.3,0,0,1-.82-.57c-.62-.83-1.35-.61-2.18-.45-.3.06-.71-.44-1.08-.68Z" transform="translate(-53.81 -12.61)"/><path class="cls-1" d="M275.73,432c-.51.32-.88.69-1,.62a3.1,3.1,0,0,1-.94-.93s.47-.64.58-.6A8.14,8.14,0,0,1,275.73,432Z" transform="translate(-53.81 -12.61)"/><path class="cls-1" d="M267,361.16c-.48.35-.79.75-1,.71a1,1,0,0,1-.67-.75,1,1,0,0,1,.73-.71C266.27,360.38,266.56,360.79,267,361.16Z" transform="translate(-53.81 -12.61)"/><path class="cls-1" d="M254.48,370.07c-.39.31-.65.68-.88.66A.88.88,0,0,1,253,370c0-.23.4-.53.68-.6S254.12,369.76,254.48,370.07Z" transform="translate(-53.81 -12.61)"/><path class="cls-1" d="M270.42,343.53a22.75,22.75,0,0,1-.3,2.26c0,.2-.45.31-.7.46-.13-.26-.41-.56-.35-.77a21.08,21.08,0,0,1,.8-2.06Z" transform="translate(-53.81 -12.61)"/><path class="cls-1" d="M271.64,332.1l-1.95,1.13-.36-.65,2-1Z" transform="translate(-53.81 -12.61)"/></svg>